<?xml version="1.0" standalone="no"?>
<!DOCTYPE svg PUBLIC "-//W3C//DTD SVG 1.1//EN" "http://www.w3.org/Graphics/SVG/1.1/DTD/svg11.dtd" >
<svg xmlns="http://www.w3.org/2000/svg">
<metadata></metadata>
<defs>
<font id="pf_agora_slab_prothin" horiz-adv-x="1073" >
<font-face units-per-em="2048" ascent="1536" descent="-512" />
<missing-glyph horiz-adv-x="528" />
<glyph unicode="&#xfb01;" horiz-adv-x="1046" d="M45 0v72h152v850h-140v51l142 28v181q0 90 28.5 147t75.5 91t109.5 46.5t128.5 12.5t139.5 -9.5t130.5 -19.5l-14 -74q-59 10 -126 17.5t-120 7.5q-72 0 -123 -11.5t-84 -41t-48 -78.5t-15 -125v-148h571l-2 -919h147l2 -55q-35 -16 -73.5 -23.5t-67.5 -7.5 q-47 0 -69.5 16.5t-22.5 71.5v842h-485v-850h157v-72h-393z" />
<glyph unicode="&#xfb02;" horiz-adv-x="1081" d="M47 0v72h152v850h-140v51l142 28v168q0 90 28.5 147.5t75.5 91.5t109.5 46t128.5 12q61 0 130.5 -8t125.5 -18l67 16v-1384h154v-72h-381v72h143v1294q-57 10 -118.5 16.5t-112.5 6.5q-72 0 -123 -11.5t-83 -41t-47 -79t-15 -124.5v-136h319v-75h-319v-850h153v-72h-389z " />
<glyph horiz-adv-x="0" />
<glyph horiz-adv-x="682" />
<glyph unicode=" "  horiz-adv-x="528" />
<glyph unicode="&#x09;" horiz-adv-x="528" />
<glyph unicode="&#xa0;" horiz-adv-x="528" />
<glyph unicode="!" horiz-adv-x="395" d="M119 61q0 31 23.5 53.5t56.5 22.5q31 0 53 -22.5t22 -53.5q0 -35 -22.5 -58t-50.5 -23q-33 0 -57.5 23.5t-24.5 57.5zM158 1415h90l-4 -645l-13 -444h-51l-16 444z" />
<glyph unicode="&#x22;" horiz-adv-x="428" d="M84 1399h92l-22 -373h-48zM262 1399h90l-20 -373h-49z" />
<glyph unicode="#" horiz-adv-x="1030" d="M86 410l16 59h148l84 397h-158l17 60h153l76 350h65l-75 -350h350l76 350h63l-76 -350h152l-16 -60h-148l-84 -397h158l-17 -59h-155l-86 -410h-64l86 410h-350l-88 -410h-63l86 410h-150zM313 469h351l86 397h-353z" />
<glyph unicode="$" d="M129 104v228h74v-178q70 -33 122 -46.5t105 -19.5v612q-61 20 -112.5 48t-90.5 65t-60.5 87t-21.5 120q0 72 21.5 128t60.5 97t90.5 68.5t112.5 40.5v135h59v-1645h-59v164q-82 8 -158.5 31.5t-142.5 64.5zM229 1030q0 -55 15.5 -94t43 -66.5t63.5 -48t79 -37.5v492 q-84 -23 -142.5 -81.5t-58.5 -164.5zM561 -156v1645h62v-127q59 -4 124.5 -21.5t118.5 -52.5v-229h-73v182q-39 18 -82 28.5t-88 14.5v-561q63 -27 123.5 -55.5t106.5 -67.5t73.5 -95t27.5 -138q0 -80 -25.5 -141.5t-70.5 -104.5t-105.5 -69.5t-129.5 -37.5v-170h-62z M623 92q117 20 183 87t66 198q0 53 -19 93t-53 70.5t-79 54t-98 44.5v-547z" />
<glyph unicode="%" horiz-adv-x="1556" d="M35 944q0 63 11 137t45 137.5t97.5 105.5t167.5 42q106 0 167 -44t91.5 -108.5t39 -137.5t8.5 -130q0 -70 -14.5 -142.5t-49.5 -132t-94.5 -97t-151.5 -37.5q-104 0 -166.5 35.5t-96.5 94t-44 131t-10 146.5zM119 940q0 -68 9 -129t34.5 -106.5t72 -72t121.5 -26.5 q68 0 111 31t68.5 80t35 108.5t9.5 118.5q0 45 -5.5 105.5t-27 116t-66.5 93t-125 37.5t-127 -36.5t-71.5 -90t-31.5 -116t-7 -113.5zM449 -47l577 1474h72l-574 -1474h-75zM893 401q0 63 11 137t45 137.5t97.5 105.5t167.5 42q106 0 167 -44t91.5 -108.5t39 -137.5 t8.5 -130q0 -70 -14.5 -142.5t-49.5 -131.5t-94 -97t-152 -38q-104 0 -166.5 36t-96.5 94t-44 131t-10 146zM977 397q0 -68 9 -129t35 -106t72 -72t121 -27q68 0 111 31t68.5 80t35 108.5t9.5 118.5q0 45 -5.5 105.5t-27 116t-66.5 93.5t-125 38t-127 -37t-71.5 -90.5 t-31.5 -115.5t-7 -114z" />
<glyph unicode="&#x26;" horiz-adv-x="1413" d="M53 365q0 141 94.5 247.5t260.5 198.5q-66 88 -93.5 159.5t-27.5 125.5q0 121 71.5 199.5t196.5 78.5q129 0 195.5 -71.5t66.5 -178.5q0 -104 -74.5 -185t-218.5 -161q86 -133 193.5 -270t224.5 -260q98 94 169 217t87 278h-197v74h424v-74h-151q-12 -168 -89 -305 t-190 -241q76 -74 158 -130.5t158 -89.5l-37 -71q-33 14 -76 38.5t-89 56.5t-93 68.5t-86 75.5q-104 -80 -224 -121.5t-233 -41.5q-88 0 -165 23.5t-133 70.5t-89 119.5t-33 169.5zM135 367q0 -80 26.5 -139.5t72 -98.5t104.5 -58.5t125 -19.5q98 0 201.5 35t214.5 113 q-53 57 -102.5 115.5t-96.5 113.5q-129 164 -234 315q-68 -37 -124 -75.5t-98 -84.5t-65.5 -99.5t-23.5 -116.5zM377 1106q0 -59 28.5 -120.5t79.5 -137.5q51 25 96.5 54.5t79 63t53 73.5t19.5 85q0 78 -49 126t-137 48q-49 0 -81 -19t-52.5 -49t-28.5 -63.5t-8 -60.5z" />
<glyph unicode="'" horiz-adv-x="317" d="M115 1399h92l-23 -373h-47z" />
<glyph unicode="(" horiz-adv-x="530" d="M121 588q0 178 34.5 324.5t82 257t94.5 183t69 107.5l37 -22q-23 -33 -60.5 -105.5t-74.5 -180.5t-64.5 -250t-27.5 -314q0 -195 27.5 -347.5t64.5 -265t75 -187.5t60 -114l-37 -26q-20 33 -66 107.5t-94 192.5t-84 277.5t-36 362.5z" />
<glyph unicode=")" horiz-adv-x="532" d="M78 -326q20 39 59 114t76 187.5t64.5 265t27.5 347.5q0 172 -27.5 314t-64.5 250t-76 180.5t-59 105.5l37 22q23 -35 69.5 -107.5t94 -183t82 -257t34.5 -324.5q0 -203 -35.5 -362.5t-84 -277.5t-94.5 -192.5t-66 -107.5z" />
<glyph unicode="*" horiz-adv-x="722" d="M92 1159q0 70 37 115l213 -109q-8 59 -17.5 117.5t-19.5 118.5q16 6 30.5 8t31.5 2q16 0 30.5 -2t28.5 -8q-10 -59 -19.5 -117.5t-19.5 -118.5l213 103q23 -23 30 -55.5t7 -59.5l-240 -33l166 -170q-33 -51 -92 -69l-111 215l-104 -215q-31 10 -53.5 25.5t-42.5 43.5 l166 172q-59 10 -116.5 18.5t-117.5 18.5z" />
<glyph unicode="+" d="M160 569v78h338v330h82v-330h333v-78h-333v-346h-82v346h-338z" />
<glyph unicode="," horiz-adv-x="323" d="M70 -168q66 72 71 156q-27 6 -43 25t-16 48q0 31 21.5 53.5t54.5 22.5q35 0 59.5 -24.5t24.5 -69.5q0 -61 -41 -130t-107 -110z" />
<glyph unicode="-" horiz-adv-x="696" d="M104 483v86h488v-86h-488z" />
<glyph unicode="." horiz-adv-x="337" d="M88 63q0 31 22.5 52.5t53.5 21.5t53.5 -21.5t22.5 -52.5t-22.5 -53t-51.5 -22q-33 0 -55.5 22.5t-22.5 52.5z" />
<glyph unicode="/" horiz-adv-x="638" d="M29 -53l526 1483h59l-524 -1483h-61z" />
<glyph unicode="0" d="M66 664q0 109 16 233.5t67.5 232t146.5 178t251 70.5q106 0 181 -33.5t126 -91t81 -131t46 -152.5t20.5 -156.5t4.5 -143.5q0 -117 -21.5 -239t-74 -220t-142.5 -161.5t-225 -63.5q-156 0 -250 60t-144.5 156.5t-66.5 217.5t-16 244zM156 659q0 -123 14 -231.5t57 -189 t120 -128t200 -47.5q113 0 184.5 55.5t112.5 142.5t56 194t15 209q0 53 -3 121.5t-14 139t-34.5 138t-64.5 120t-102.5 84t-149.5 31.5q-133 0 -211 -65.5t-118 -161.5t-51 -207.5t-11 -204.5z" />
<glyph unicode="1" d="M172 1253l350 103h88v-1280h281v-76h-674v76h305v1171l-336 -53z" />
<glyph unicode="2" d="M66 0v72q39 39 85 83t97 91q94 90 188 186t169 194.5t121 195t46 186.5q0 74 -23.5 128t-64.5 87.5t-97.5 50t-119.5 16.5q-66 0 -156 -22.5t-194 -91.5q-10 16 -19.5 30.5t-19.5 30.5q109 80 215 108.5t186 28.5q82 0 152.5 -20.5t123 -64.5t83 -110.5t30.5 -158.5 q0 -88 -35.5 -178t-94 -178.5t-133.5 -172t-149.5 -158.5t-145 -140.5t-122.5 -116.5h646v207h84v-283h-852z" />
<glyph unicode="3" d="M80 55l26 68q113 -35 198 -47.5t145 -12.5q88 0 161.5 21.5t125.5 65t81 111t29 159.5q0 147 -105.5 225t-291.5 78q-39 0 -72 -2t-68 -8l-30 61l487 500h-549v-217h-84v299h750l18 -62l-485 -489h57q92 0 176 -22.5t148.5 -68.5t102.5 -120t38 -174q0 -111 -38 -193 t-101.5 -136t-146.5 -80.5t-175 -26.5q-121 0 -216 16t-181 55z" />
<glyph unicode="4" d="M53 393v80q168 223 336 441.5t334 441.5h94v-887h201v-76h-201v-319h168v-74h-414v74h158v319h-676zM145 469h586v766q-147 -174 -295.5 -375t-290.5 -391z" />
<glyph unicode="5" d="M94 55l27 68q109 -33 191.5 -46.5t142.5 -13.5q186 0 294.5 86.5t108.5 270.5q0 84 -28.5 146.5t-78 103.5t-115 61.5t-138.5 20.5q-61 0 -126 -16.5t-124 -45.5l-66 49q8 156 16.5 308.5t18.5 308.5h678v-256h-82v174h-518l-27 -494q29 14 89 32.5t171 18.5 q74 0 149 -21.5t136 -70.5t100 -128t39 -191q0 -113 -37.5 -195t-102 -136t-147.5 -80.5t-176 -26.5q-119 0 -214 17t-181 56z" />
<glyph unicode="6" d="M106 623q0 168 33 306t96.5 238.5t157.5 155.5t219 55q104 0 177 -21.5t114 -43.5l-29 -68q-80 33 -146 43t-118 10q-82 0 -144.5 -30.5t-106.5 -80.5t-73.5 -112.5t-48 -125t-26.5 -119t-10 -93.5l8 -6q61 39 155.5 73t213.5 34q80 0 152.5 -22.5t128.5 -72t89 -129 t33 -194.5q0 -100 -31.5 -180t-88 -136.5t-136.5 -87t-178 -30.5q-133 0 -218 51t-134.5 138t-69 203t-19.5 245zM199 584q0 -70 10 -160t46 -170t105.5 -135.5t190.5 -55.5q82 0 145.5 26t106.5 72t64.5 110.5t21.5 140.5t-16.5 138t-54.5 108.5t-99.5 72t-149.5 25.5 t-156.5 -18.5t-115.5 -41t-71.5 -41t-26.5 -20.5v-51z" />
<glyph unicode="7" d="M137 1059v297h787v-78l-574 -1278h-88l574 1276h-615v-217h-84z" />
<glyph unicode="8" d="M78 322q0 125 66.5 245.5t209.5 206.5q-102 53 -153 120t-51 159q0 63 27.5 122.5t78.5 104.5t123 71.5t160 26.5q68 0 136 -17.5t124.5 -55t92.5 -97t36 -143.5t-48.5 -178t-172.5 -182q117 -57 183 -142.5t66 -208.5q0 -72 -27.5 -138t-82.5 -117.5t-137 -82 t-191 -30.5q-117 0 -199.5 28.5t-136 75.5t-79 107.5t-25.5 124.5zM164 332q0 -49 18.5 -98.5t61.5 -89.5t111.5 -64.5t168.5 -24.5q90 0 155.5 27t108.5 69t63.5 95t20.5 106q0 86 -34.5 143.5t-96 98.5t-143.5 74.5t-176 70.5q-137 -84 -197.5 -193.5t-60.5 -213.5z M238 1053q0 -66 35.5 -113t92 -83t127 -64.5t138.5 -55.5q121 86 168 167t47 147q0 43 -16.5 88t-53.5 81.5t-96 61.5t-148 25q-84 0 -141 -28t-91 -68t-48 -82.5t-14 -75.5z" />
<glyph unicode="9" d="M78 944q0 100 31.5 180t88 136.5t136.5 87t178 30.5q133 0 218 -51t134 -138t68.5 -203t19.5 -245q0 -168 -32.5 -306t-96 -237.5t-158 -154.5t-219.5 -55q-104 0 -188 21.5t-125 41.5l31 70q78 -33 155.5 -43t129.5 -10q82 0 144 30.5t106 80.5t74 111.5t48.5 124 t26.5 119t10 93.5l-8 6q-59 -39 -153.5 -73t-215.5 -34q-80 0 -152.5 22.5t-129 72t-89 129t-32.5 194.5zM170 952q0 -76 16.5 -139t54.5 -108.5t98 -71t150 -25.5q88 0 157 18.5t116 40t71.5 41t26.5 19.5v53q0 70 -10 159t-46 169t-106.5 134t-189.5 54 q-82 0 -145.5 -25.5t-106.5 -71.5t-64.5 -108.5t-21.5 -138.5z" />
<glyph unicode=":" horiz-adv-x="333" d="M94 68q0 29 22.5 51t53.5 22t53.5 -22t22.5 -51q0 -31 -20.5 -54.5t-53.5 -23.5q-35 0 -56.5 23.5t-21.5 54.5zM94 713q0 31 22.5 52t53.5 21t53.5 -21t22.5 -52t-22.5 -53.5t-51.5 -22.5q-33 0 -55.5 23.5t-22.5 52.5z" />
<glyph unicode=";" horiz-adv-x="333" d="M80 -168q35 37 51 74t19 82q-25 6 -41.5 25t-16.5 48q0 31 21.5 53.5t54.5 22.5q35 0 58.5 -24.5t23.5 -69.5q0 -61 -40 -130t-106 -110zM94 713q0 31 22.5 52t53.5 21t53.5 -21t22.5 -52t-22.5 -53.5t-51.5 -22.5q-33 0 -55.5 23.5t-22.5 52.5z" />
<glyph unicode="&#x3c;" d="M164 569v74l754 389v-90l-668 -334l668 -340v-90z" />
<glyph unicode="=" d="M147 438v76h777v-76h-777zM147 719v78h777v-78h-777z" />
<glyph unicode="&#x3e;" d="M164 178v90l670 340l-670 334v90l754 -389v-74z" />
<glyph unicode="?" horiz-adv-x="839" d="M86 1110v266q88 31 178 46.5t162 15.5q182 0 272 -70t90 -192q0 -96 -58 -171t-132 -133q-74 -57 -125 -103t-84 -89t-47 -84t-14 -86q0 -35 5 -75t13 -87l-72 -18q-16 63 -21 110t-5 80q0 94 60.5 184t203.5 201q86 66 135 124t49 140q0 102 -73.5 145.5t-186.5 43.5 q-59 0 -131 -10.5t-143 -32.5v-205h-76zM272 61q0 31 22.5 53.5t53.5 22.5q33 0 55.5 -22.5t22.5 -53.5q0 -35 -23.5 -57t-52.5 -22q-31 0 -54.5 22.5t-23.5 56.5z" />
<glyph unicode="@" horiz-adv-x="1746" d="M147 682q0 156 61.5 287t166 226t243.5 149.5t295 54.5q162 0 292 -47t219 -133t137.5 -207t48.5 -271q0 -104 -31 -182t-77 -128t-103.5 -74.5t-112.5 -24.5q-63 0 -122.5 22.5t-88.5 89.5q-47 -45 -120.5 -79.5t-163.5 -34.5q-66 0 -107 21.5t-63.5 54t-31.5 70.5 t-9 71q0 55 19 95t53 66.5t77 40t92 17.5l236 20v68q0 109 -38 151t-136 42q-106 0 -238 -48l-20 58q61 29 133.5 45t142.5 16q111 0 169 -54t58 -183v-336q0 -150 160 -150q43 0 88 19.5t82 61.5t60.5 107.5t23.5 157.5q0 143 -45 254t-127 186.5t-198.5 115.5t-258.5 40 q-141 0 -269 -50t-223 -137t-151.5 -207t-56.5 -259q0 -141 49 -262t135 -209t204 -137t255 -49q59 0 115.5 7t124.5 29l14 -55q-47 -16 -112.5 -29.5t-135.5 -13.5q-156 0 -287 53.5t-226 148.5t-148.5 227t-53.5 288zM655 551q0 -72 38 -113t122 -41q55 0 118.5 26 t123.5 79v221l-226 -16q-74 -4 -125 -45t-51 -111z" />
<glyph unicode="A" horiz-adv-x="1286" d="M41 0v76h119q20 63 54 167.5t74 231.5t85 263t85 262t73.5 230.5t54.5 168.5h119l428 -1323h114v-76h-362v76h149l-98 317h-584l-98 -317h156v-76h-369zM381 475h528l-198 625l-64 209h-4l-65 -209q-8 -25 -31 -96.5t-52.5 -162.5t-60.5 -189.5t-53 -176.5z" />
<glyph unicode="B" horiz-adv-x="1185" d="M82 0v76h139v1245h-131v76h572q100 0 174.5 -25.5t124 -72t74 -111t24.5 -139.5q0 -37 -8.5 -81t-31 -87t-63.5 -83t-104 -67q70 -20 118 -59t77.5 -89.5t43 -104.5t13.5 -105q0 -84 -30 -152.5t-81 -118t-117.5 -76t-140.5 -26.5h-653zM313 76h387q86 0 145.5 25.5 t96.5 68.5t54.5 98.5t17.5 114.5q0 57 -21.5 112.5t-62.5 97.5t-99.5 67.5t-132.5 25.5h-385v-610zM313 764h349q143 0 225 77t82 199q0 59 -18.5 110.5t-56.5 89.5t-98.5 59.5t-144.5 21.5h-338v-557z" />
<glyph unicode="C" horiz-adv-x="1107" d="M102 690q0 109 25 237t88.5 237.5t174 182t282.5 72.5q113 0 202 -16.5t146 -38.5v-281h-80v222q-47 14 -121 24t-143 10q-127 0 -217 -47t-148.5 -133t-86 -205.5t-27.5 -267.5q0 -121 17 -232.5t68.5 -197.5t145.5 -138t248 -52q29 0 69.5 2t87 8t94.5 15t91 22l20 -70 q-33 -12 -79 -22.5t-97 -18.5t-102 -12t-96 -4q-152 0 -258.5 49t-174 141t-98.5 222t-31 292z" />
<glyph unicode="D" horiz-adv-x="1280" d="M82 0v76h139v1245h-131v78h543q162 0 267.5 -56.5t166.5 -151.5t86 -222.5t25 -266.5q0 -145 -27 -272t-91.5 -223t-173 -151.5t-274.5 -55.5h-530zM315 78h283q29 0 77 2t101 18.5t108.5 52t100.5 103.5t72.5 173t27.5 259q0 156 -25.5 264.5t-66.5 179t-92 109.5 t-104.5 57.5t-101.5 21.5t-81 3h-299v-1243z" />
<glyph unicode="E" horiz-adv-x="1085" d="M82 0v76h135v1245h-127v76h899v-256h-78v180h-602v-547q20 0 65.5 1t104 3t123 3t122.5 2t103 2t66 1v-92l-584 8v-626h633v182h82v-258h-942z" />
<glyph unicode="F" horiz-adv-x="1030" d="M82 0v76h135v1245h-127v76h899v-256h-78v180h-602v-547q20 0 65.5 1t104 3t123 3t122.5 2t103 2t66 1v-92l-584 8v-626h201v-76h-428z" />
<glyph unicode="G" horiz-adv-x="1224" d="M102 690q0 72 11.5 155t38 164t70.5 155.5t110.5 131t156.5 90t211 33.5q113 0 203 -16.5t146 -38.5v-281h-80v222q-47 14 -121 24t-143 10q-131 0 -226.5 -47t-158 -133t-93 -205.5t-30.5 -267.5q0 -121 18 -232.5t70.5 -197.5t147.5 -137t247 -51q29 0 66.5 2t77.5 7 t77 12t66 17v523h-217v76h413v-76h-106v-586q-98 -29 -196.5 -43t-196.5 -14q-152 0 -258.5 49t-174 141t-98.5 222t-31 292z" />
<glyph unicode="H" horiz-adv-x="1337" d="M82 0v78h127v1243h-127v78h350v-78h-131v-543h731v543h-129v78h352v-78h-129v-1243h129v-78h-352v78h129v620h-731v-620h131v-78h-350z" />
<glyph unicode="I" horiz-adv-x="632" d="M143 0v76h125v1245h-125v78h346v-78h-129v-1245h129v-76h-346z" />
<glyph unicode="J" horiz-adv-x="643" d="M-47 -295q86 49 149.5 98.5t104.5 108.5t60.5 132t19.5 169l2 1108h-170v78h418v-78h-156l-2 -1088q0 -123 -26.5 -214t-77 -161.5t-125 -122.5t-168.5 -97z" />
<glyph unicode="K" horiz-adv-x="1212" d="M82 0v78h127v1243h-127v78h348v-78h-129v-614l621 614h-152v78h371v-78h-107l-485 -475l516 -766h125v-80h-367v80h133l-473 702l-182 -180v-524h133v-78h-352z" />
<glyph unicode="L" horiz-adv-x="1056" d="M82 0v76h135v1245h-127v76h371v-76h-152v-1245h643v246h84v-322h-954z" />
<glyph unicode="M" horiz-adv-x="1671" d="M82 0v76h125v1245h-125v78h229l414 -926l106 -246h11l108 248l412 924h227v-78h-127v-1245h127v-76h-350v76h133v1141h-6l-94 -216l-391 -872h-93l-405 897l-84 195h-6l2 -1145h135v-76h-348z" />
<glyph unicode="N" horiz-adv-x="1417" d="M82 0v78h139v1243h-139v78h237l637 -998l146 -233h10v1153h-147v78h370v-78h-135v-1321h-86l-653 1016l-146 231h-6v-1169h146v-78h-373z" />
<glyph unicode="O" horiz-adv-x="1310" d="M102 686q0 143 28 275.5t93.5 233.5t174 162.5t270.5 61.5q164 0 268 -61.5t164.5 -162.5t84 -232.5t23.5 -270.5q0 -152 -33.5 -279.5t-101 -223t-169 -149.5t-236.5 -54q-158 0 -265.5 48t-174 139t-96.5 220t-30 293zM197 682q0 -305 110.5 -463t356.5 -158 q115 0 199.5 49.5t140 134.5t83 198.5t27.5 242.5q0 106 -16.5 223t-63.5 212.5t-135 157.5t-231 62t-234.5 -56t-143.5 -149.5t-72.5 -212t-20.5 -241.5z" />
<glyph unicode="P" horiz-adv-x="1089" d="M82 0v76h129v1245h-129v78h545q82 0 155.5 -23.5t129 -72t88 -122t32.5 -173.5q0 -59 -16.5 -131t-60.5 -133.5t-119.5 -103.5t-194.5 -42h-338v-522h172v-76h-393zM303 674h336q55 0 108.5 15.5t96.5 53t69.5 100t26.5 158.5q0 80 -24.5 140.5t-65.5 100.5t-97.5 59.5 t-119.5 19.5h-330v-647z" />
<glyph unicode="Q" horiz-adv-x="1308" d="M102 686q0 143 28 275.5t93.5 233.5t174 162.5t270.5 61.5q164 0 268 -61.5t164.5 -162.5t84 -232.5t23.5 -270.5q0 -121 -22.5 -228.5t-65.5 -194.5t-108.5 -151.5t-151.5 -97.5l340 -81l-41 -101l-461 148h-30q-158 0 -265.5 48t-174 139t-96.5 220t-30 293zM197 682 q0 -305 110.5 -463t356.5 -158q115 0 199.5 49.5t140 134.5t83 198.5t27.5 242.5q0 106 -16.5 223t-63.5 212.5t-135 157.5t-231 62t-234.5 -56t-143.5 -149.5t-72.5 -212t-20.5 -241.5z" />
<glyph unicode="R" horiz-adv-x="1179" d="M82 0v76h129v1245h-129v78h541q82 0 156.5 -20.5t131 -64.5t89 -115t32.5 -171q0 -53 -12 -112.5t-45 -112.5t-87 -94t-138 -60l260 -573l137 -15l2 -51q-33 -12 -71 -18t-62 -6q-41 0 -59.5 19.5t-34.5 53.5l-260 580h-359v-563h172v-76h-393zM303 715h332 q55 0 109.5 12t97.5 46t70.5 93.5t27.5 155.5q0 80 -24.5 137.5t-67.5 93t-99.5 52t-119.5 16.5h-326v-606z" />
<glyph unicode="S" horiz-adv-x="1040" d="M72 88v240h78v-185q86 -41 166.5 -58t166.5 -17q186 0 290 67.5t104 239.5q0 74 -27 124t-73 83.5t-109.5 55t-137.5 42.5q-86 23 -165.5 48.5t-139 65.5t-95.5 99t-36 149q0 92 33 163t91 118t137 71.5t169 24.5q72 0 167 -13t181 -56v-258h-79v204q-66 25 -137.5 34 t-141.5 9q-141 0 -234.5 -73.5t-93.5 -225.5q0 -68 31 -112.5t81 -75.5t111.5 -50.5t122.5 -35.5q78 -20 156 -44t140.5 -66t101.5 -109.5t39 -173.5q0 -104 -38 -178t-103.5 -120t-152.5 -67.5t-183 -21.5q-109 0 -218.5 23.5t-201.5 78.5z" />
<glyph unicode="T" horiz-adv-x="1046" d="M35 1118v281h977l2 -281h-82v203h-363v-1245h174v-76h-432v76h168v1245h-366v-203h-78z" />
<glyph unicode="U" horiz-adv-x="1384" d="M61 1321v78h371v-78h-153v-823q0 -215 105 -325t304 -110q205 0 309.5 110t104.5 325v823h-150v78h371v-78h-131v-827q0 -113 -31 -206t-94 -161t-157.5 -104.5t-221.5 -36.5q-131 0 -225 34.5t-155.5 100t-90.5 160t-29 213.5v827h-127z" />
<glyph unicode="V" horiz-adv-x="1214" d="M16 1321v78h351v-78h-136l297 -954l78 -265h8l78 271l291 948h-129v78h346v-78h-125l-413 -1321h-109l-414 1321h-123z" />
<glyph unicode="W" horiz-adv-x="1787" d="M16 1321v78h363v-78h-148l238 -979l53 -231h6l66 235l260 897l-23 78h-139v78h373v-78h-145l282 -967l70 -243h4l63 264l224 946h-146v78h357v-78h-125q-14 -61 -40 -165.5t-57.5 -230.5t-64.5 -263.5t-64.5 -263.5t-57.5 -231.5t-40 -166.5h-106l-250 856l-66 240h-6 l-72 -250l-245 -846h-111l-330 1321h-123z" />
<glyph unicode="X" horiz-adv-x="1212" d="M37 0v78h125l393 647l-365 596h-118v78h366v-78h-151l321 -528l320 528h-160v78h381v-78h-123l-371 -602l394 -641h127v-78h-388v78h164l-350 575l-344 -575h174v-78h-395z" />
<glyph unicode="Y" horiz-adv-x="1099" d="M16 1321v76h344v-76h-137l207 -383l113 -215h8l115 207l219 391h-140v76h336v-76h-104l-385 -682v-563h172v-76h-434v76h170v557l-375 688h-109z" />
<glyph unicode="Z" horiz-adv-x="997" d="M41 0v78l776 1243h-649v-203h-78v281h832v-80l-777 -1241h729v221h82v-299h-915z" />
<glyph unicode="[" horiz-adv-x="473" d="M113 -328v1753h284v-75h-196v-1600h196v-78h-284z" />
<glyph unicode="\" horiz-adv-x="638" d="M29 1430h59l526 -1483h-63z" />
<glyph unicode="]" horiz-adv-x="473" d="M72 -250h198v1600h-198v75h284v-1753h-284v78z" />
<glyph unicode="^" horiz-adv-x="858" d="M51 813l344 586h74l334 -586h-82l-293 510l-293 -510h-84z" />
<glyph unicode="_" horiz-adv-x="1024" d="M0 -186h1024v-62h-1024v62z" />
<glyph unicode="`" horiz-adv-x="960" d="M260 1391l82 67l219 -311l-49 -35z" />
<glyph unicode="a" horiz-adv-x="974" d="M68 264q0 70 26.5 123t72.5 89t110.5 54.5t138.5 22.5l282 14v92q0 74 -11 126.5t-37.5 84t-72 46t-112.5 14.5q-74 0 -153 -16.5t-156 -45.5l-25 66q86 37 176 56.5t176 19.5q145 0 223 -73t78 -249v-612h162l6 -53q-35 -16 -83 -22.5t-76 -6.5q-47 0 -71 19.5t-24 78.5 v27q-63 -49 -117.5 -76t-99.5 -39t-78.5 -14t-58.5 -2q-82 0 -135 26.5t-85 67.5t-44 90t-12 92zM160 272q0 -211 219 -211q152 0 319 144v293l-295 -15q-121 -6 -182 -62t-61 -149z" />
<glyph unicode="b" horiz-adv-x="1021" d="M-16 1378v74h260v-534q98 53 172.5 75.5t142.5 22.5q106 0 176 -40t111 -110.5t57.5 -167t16.5 -209.5q0 -104 -20.5 -195t-67 -159.5t-122 -107.5t-186.5 -39t-199.5 21.5t-166.5 56.5v1312h-174zM244 119q72 -33 142.5 -43t131.5 -10q74 0 131.5 22.5t97 72.5t61 130 t21.5 194q0 131 -19 218.5t-54 139.5t-86.5 73.5t-112.5 21.5q-84 0 -167 -30.5t-146 -67.5v-721z" />
<glyph unicode="c" horiz-adv-x="872" d="M82 481q0 76 16.5 169t62.5 174t128 136.5t213 55.5q78 0 152.5 -15.5t129.5 -39.5v-232h-71v180q-57 16 -104.5 23.5t-100.5 7.5q-90 0 -153.5 -34t-104.5 -95t-59.5 -145t-18.5 -185q0 -86 14.5 -161.5t50 -134t95 -92.5t151.5 -34q86 0 155 18.5t153 53.5l24 -59 q-59 -35 -145 -59.5t-181 -24.5q-113 0 -190.5 36.5t-125.5 102.5t-69.5 156t-21.5 198z" />
<glyph unicode="d" horiz-adv-x="1030" d="M82 477q0 113 20.5 211t66.5 171t119.5 114t178.5 41q61 0 140 -17.5t151 -64.5v446h-180v72h266v-1380h172v-70h-258v102q-2 0 -2 4q-66 -51 -148 -84.5t-170 -33.5q-100 0 -168.5 39t-109.5 105.5t-59.5 155.5t-18.5 189zM172 473q0 -115 20.5 -193.5t57.5 -127t89 -69 t118 -20.5q37 0 80 11.5t84 29t77.5 40t59.5 44.5v662q-23 14 -54.5 29.5t-70.5 28t-81 20.5t-81 8q-63 0 -117.5 -23.5t-94.5 -78t-63.5 -143.5t-23.5 -218z" />
<glyph unicode="e" horiz-adv-x="929" d="M82 494q0 39 5 92t19.5 110.5t42 114.5t72.5 102t109.5 73t156.5 28q96 0 161 -29t106 -74t61.5 -100t29.5 -108.5t10 -97.5t1 -66v-60h-684q0 -82 12.5 -156.5t48 -133t96 -93.5t154.5 -35q92 0 162 17.5t156 59.5l26 -62q-84 -45 -162.5 -66.5t-175.5 -21.5 q-123 0 -202.5 40t-124.5 108.5t-62.5 160.5t-17.5 197zM174 555h596q0 84 -14.5 154.5t-47 121t-87 79t-134.5 28.5q-84 0 -141 -32t-93 -86t-54.5 -122.5t-24.5 -142.5z" />
<glyph unicode="f" horiz-adv-x="638" d="M41 0v72h152v850h-140v51l142 28v185q0 150 77.5 217t206.5 67q82 0 166 -18l-12 -70q-35 4 -72 8.5t-65 4.5q-111 0 -165.5 -45t-54.5 -158v-195h297v-75h-297v-850h181v-72h-416z" />
<glyph unicode="g" horiz-adv-x="980" d="M59 -147q0 90 42 155.5t89 93.5q-61 10 -94 45t-33 91q0 49 18.5 79.5t46.5 48t60.5 24.5t59.5 9q-57 27 -104.5 92.5t-47.5 176.5q0 94 33 160.5t85 107.5t115.5 60.5t127.5 19.5q43 0 89 -4t89 -21h299v-71h-178q0 -4 -2 -7q49 -41 71.5 -103t22.5 -136 q0 -158 -107.5 -247t-283.5 -89h-117q-78 0 -132 -15.5t-54 -70.5q0 -41 32.5 -61.5t92.5 -20.5h262q184 0 271 -80t87 -215q0 -78 -35 -136t-94 -99t-139 -61.5t-170 -20.5q-117 0 -194 23.5t-123 64.5t-65.5 94t-19.5 113zM145 -133q0 -47 14.5 -89t51.5 -74t100.5 -51.5 t161.5 -19.5q72 0 133.5 16.5t107.5 48.5t72.5 77t26.5 100q0 37 -11 75t-42 68.5t-85 51t-140 20.5h-244q-31 -10 -56.5 -33.5t-46 -54.5t-32 -66.5t-11.5 -68.5zM188 672q0 -117 71 -187.5t185 -70.5q141 0 228.5 64.5t87.5 195.5q0 43 -13.5 90t-47 85t-89 63.5 t-139.5 25.5q-137 0 -210 -69.5t-73 -196.5z" />
<glyph unicode="h" horiz-adv-x="1095" d="M16 1378v74h250v-553q98 55 196.5 86t172.5 31q100 0 155.5 -30t81 -76t30.5 -99t5 -100v-633h158v-55q-35 -16 -78 -23.5t-72 -7.5q-47 0 -69.5 20.5t-24.5 81.5v588q0 57 -5 104.5t-25.5 81t-60.5 52t-107 18.5q-41 0 -88.5 -10t-94.5 -26.5t-92 -37t-82 -41.5v-823 h-86v1378h-164z" />
<glyph unicode="i" horiz-adv-x="530" d="M104 924v73h209v-919h156v-55q-35 -16 -77 -23.5t-70 -7.5q-47 0 -70 20.5t-25 81.5v830h-123zM195 1243q0 29 20.5 49.5t46.5 20.5q29 0 49.5 -20.5t20.5 -49.5q0 -27 -20.5 -47t-49.5 -20q-27 0 -47 20t-20 47z" />
<glyph unicode="j" horiz-adv-x="493" d="M-16 -377q72 39 117.5 76t72.5 78t37 88t10 108v951h-151v73h235v-997q0 -86 -12 -150.5t-46 -115.5t-91.5 -91t-145.5 -79zM186 1243q0 29 20.5 49.5t47.5 20.5q29 0 49.5 -20.5t20.5 -49.5q0 -27 -20.5 -47t-49.5 -20q-27 0 -47.5 20t-20.5 47z" />
<glyph unicode="k" horiz-adv-x="995" d="M18 1378v74h258v-934l433 406h-148v73h352v-73h-100l-321 -303l356 -547l127 -15v-49q-31 -14 -60.5 -19t-54.5 -5q-41 0 -57.5 15t-38.5 46l-330 520l-158 -145v-350h146v-72h-373v72h144v1306h-175z" />
<glyph unicode="l" horiz-adv-x="552" d="M68 1378v74h258v-1380h151v-72h-387v72h150v1306h-172z" />
<glyph unicode="m" horiz-adv-x="1730" d="M41 922v73h244v-92l6 -4q92 53 182 83t168 30q92 0 149.5 -31t88.5 -90q96 57 193 90t179 33q100 0 157.5 -30t85.5 -74t34 -97t6 -100v-637h156v-53q-35 -16 -78 -22.5t-70 -6.5q-47 0 -69.5 17.5t-24.5 76.5v588q0 59 -6 107t-27.5 82t-63.5 52.5t-112 18.5 q-37 0 -82 -9t-91 -24.5t-90 -35t-77 -40.5q6 -41 8 -83t2 -76v-668h-86v698q0 127 -45 182.5t-153 55.5q-41 0 -86 -10.5t-89 -26.5t-86 -36.5t-79 -41.5v-821h-84v922h-160z" />
<glyph unicode="n" horiz-adv-x="1122" d="M41 924v71h246v-92q2 0 4 -2q92 53 192.5 83t171.5 30q98 0 152.5 -28t81 -71t32 -95t5.5 -99v-645h155v-53q-35 -16 -76.5 -22.5t-70.5 -6.5q-47 0 -69.5 19.5t-22.5 78.5v588q0 57 -4 104t-24.5 81t-60.5 52.5t-110 18.5q-41 0 -88 -10.5t-94 -26.5t-92 -35.5 t-82 -40.5v-823h-86v924h-160z" />
<glyph unicode="o" horiz-adv-x="964" d="M82 487q0 96 21.5 190.5t69.5 169.5t126 121t193 46q119 0 194.5 -46t119.5 -120t60.5 -167t16.5 -187q0 -92 -17.5 -182.5t-63.5 -163t-125 -117.5t-202 -45q-117 0 -192.5 42t-119.5 111.5t-62.5 160.5t-18.5 187zM172 485q0 -82 11.5 -157.5t46 -135t97 -95.5 t165.5 -36q94 0 153.5 39t93 100.5t45 137t11.5 149.5t-11.5 153t-44 145.5t-92 109.5t-155.5 43t-158 -41t-97.5 -105.5t-50 -145.5t-14.5 -161z" />
<glyph unicode="p" horiz-adv-x="1021" d="M4 924v73h260v-110q63 53 147.5 88t172.5 35q100 0 168.5 -39t109.5 -105.5t59.5 -157t18.5 -190.5q0 -115 -20.5 -212t-66.5 -170t-120 -113.5t-178 -40.5q-61 0 -140 18t-151 63v-421h180v-72h-426v72h160v1282h-174zM264 145q20 -16 53 -31.5t72 -27.5t80 -19.5 t82 -7.5q63 0 117.5 23.5t94.5 79t63.5 143.5t23.5 217q0 115 -20.5 194t-57.5 127t-89 68.5t-118 20.5q-37 0 -80 -10.5t-84 -27.5t-77.5 -40t-59.5 -47v-662z" />
<glyph unicode="q" horiz-adv-x="1015" d="M96 502q0 104 21.5 197.5t68.5 162t122 108.5t186 40t198.5 -21.5t165.5 -56.5v-1288h172v-74h-442v74h184v436q-98 -53 -173 -75.5t-144 -22.5q-104 0 -174 38.5t-112 108.5t-59 165q-14 85 -14 184v24zM184 502q0 -127 19.5 -213t55.5 -137.5t86.5 -73t111.5 -21.5 q84 0 167 32t148 67v723q-74 33 -142.5 43t-127.5 10q-147 0 -230.5 -100.5t-87.5 -329.5z" />
<glyph unicode="r" horiz-adv-x="673" d="M57 0v72h154v852h-154v73h240v-135h2q27 23 68 50.5t87 51t93 39t84 15.5q14 0 24.5 -7t10.5 -30q0 -18 -8.5 -46t-22.5 -46l-336 -66v-751h168v-72h-410z" />
<glyph unicode="s" horiz-adv-x="817" d="M66 272h71l4 -163q53 -27 119 -38.5t119 -11.5q57 0 108.5 10.5t90 34t60 61.5t21.5 95q0 47 -20.5 81t-55 58.5t-79.5 41t-92 30.5q-61 18 -120 38.5t-105 51.5t-73.5 77t-27.5 114q0 72 26.5 122t71.5 80.5t104.5 45t123.5 14.5q57 0 129.5 -14.5t136.5 -49.5l2 -221 h-72l-4 174q-41 16 -94 26.5t-100 10.5q-51 0 -94.5 -10t-75 -33t-50 -58.5t-18.5 -88.5q0 -45 24.5 -77t60.5 -53.5t77 -36t76 -24.5q61 -18 121.5 -38.5t107.5 -53.5t75.5 -82t28.5 -125q0 -74 -29.5 -125t-79.5 -84t-114.5 -48t-134.5 -15q-86 0 -172 17.5t-143 57.5z " />
<glyph unicode="t" horiz-adv-x="671" d="M49 924v47l146 35l30 198l54 10v-217h296v-73h-299v-688q0 -72 29 -120t119 -48q78 0 194 36l19 -61q-49 -23 -107.5 -37t-115.5 -14q-47 0 -87 10t-70 34.5t-47 65.5t-17 103v719h-144z" />
<glyph unicode="u" horiz-adv-x="1105" d="M41 924v71h244v-684q0 -59 5 -106t24.5 -81t59.5 -52.5t107 -18.5q33 0 75 9.5t88 28t92 47t87 67.5v719h-151v71q59 0 117.5 1t117.5 1v-2h2q0 -231 -1 -459.5t-1 -459.5h152v-53q-35 -16 -75 -23.5t-66 -7.5q-47 0 -70 20.5t-25 79.5q-2 10 -2 31q-55 -49 -108.5 -77 t-99.5 -43t-82.5 -19t-59.5 -4q-100 0 -155.5 28.5t-81 72.5t-29.5 96t-4 99v648h-160z" />
<glyph unicode="v" horiz-adv-x="968" d="M14 922v73h185q53 -176 109.5 -354t111.5 -362l59 -189h6q14 41 26.5 83t27.5 85l209 664h-109v73h301v-73h-104q-76 -229 -152 -461t-154 -461h-102q-74 229 -147.5 460.5t-149.5 461.5h-117z" />
<glyph unicode="w" horiz-adv-x="1505" d="M8 922v75h178l185 -641l75 -266h9l84 262l163 488l-24 82h-148v75h357v-75h-119l203 -588l82 -244h6l67 254l162 578h-137v75h334v-75h-111l-264 -922h-102l-179 498l-79 231h-9l-79 -240l-166 -489h-101l-272 922h-115z" />
<glyph unicode="x" horiz-adv-x="935" d="M16 0v72h134l272 452l-242 398h-139v75h188l250 -411l199 336h-96v75h315v-75h-129l-246 -408l273 -442h129v-72h-316v72h90l-233 383l-225 -383h118v-72h-342z" />
<glyph unicode="y" horiz-adv-x="1017" d="M35 922v73h168l227 -696l72 -231h10l82 249q27 80 53.5 164t52 164t48 150.5t40.5 126.5h-139v73h330v-73h-107q-94 -293 -188 -581t-190 -579q-35 -102 -82 -153t-140 -51q-23 0 -71.5 4t-132.5 26l16 66q55 -10 94 -16.5t74 -6.5q27 0 50.5 5.5t44 20.5t37.5 45t34 81 l71 217h-45l-307 922h-102z" />
<glyph unicode="z" horiz-adv-x="849" d="M49 0v68l625 854h-518v-179h-74v254h688v-75l-618 -850h563v176h76v-248h-742z" />
<glyph unicode="{" horiz-adv-x="475" d="M61 584v57q47 8 75 31.5t41 56.5t16.5 71t3.5 77v374q0 33 9 65t27.5 58.5t45 43t63.5 16.5h80v-76h-45q-49 0 -71.5 -35t-22.5 -96v-357q0 -39 -4.5 -78.5t-16.5 -75.5t-34.5 -62.5t-57.5 -39.5q76 -43 94.5 -104t18.5 -152v-493q0 -55 14 -93t72 -38h53v-76h-84 q-35 0 -61.5 15.5t-44 41t-26.5 58t-9 65.5v514q0 37 -3.5 75t-16.5 69.5t-39.5 55t-76.5 32.5z" />
<glyph unicode="|" horiz-adv-x="419" d="M170 -276v1701h70v-1701h-70z" />
<glyph unicode="}" horiz-adv-x="475" d="M57 -266h54q55 0 69.5 38t14.5 93v493q0 90 18 151.5t94 104.5q-35 12 -57.5 39t-34.5 63t-16 75.5t-4 78.5v357q0 61 -21.5 96t-73.5 35h-43v76h78q37 0 64.5 -16.5t46 -43t28 -58.5t9.5 -65v-374q0 -39 3 -77t16 -71t40 -56.5t74 -31.5v-57q-47 -8 -74 -32t-40 -55.5 t-16 -69.5t-3 -75v-514q0 -33 -9.5 -65.5t-27 -58t-44 -41t-61.5 -15.5h-84v76z" />
<glyph unicode="~" d="M152 549q31 63 76 100t104 37q45 0 107.5 -13.5t126 -30.5t121.5 -30.5t95 -13.5l119 88l41 -33q-29 -63 -73 -99t-103 -36q-55 0 -115.5 13.5t-119 30t-112.5 29.5t-97 13l-127 -90z" />
<glyph unicode="&#xa1;" horiz-adv-x="395" d="M119 930q0 35 23.5 58.5t56.5 23.5q29 0 52 -23.5t23 -58.5q0 -31 -22.5 -53.5t-54.5 -22.5q-33 0 -55.5 22.5t-22.5 53.5zM156 -424l10 625l12 465h51q4 -117 6.5 -233t4.5 -232q0 -18 1 -66.5t2 -112t1 -134t1 -134t1 -112v-66.5h-90z" />
<glyph unicode="&#xa2;" d="M170 481q0 72 15.5 160t56.5 168t113.5 137.5t189.5 67.5v168h67v-168q72 -4 139.5 -17.5t120.5 -35.5v-232h-73v180q-53 16 -96.5 23.5t-90.5 7.5v-879q70 4 131.5 21.5t133.5 48.5l24 -59q-53 -31 -128 -54.5t-161 -27.5v-168h-67v166q-104 6 -175 45t-116 103.5 t-64.5 152.5t-19.5 192zM260 481q0 -82 12.5 -156.5t45 -131t88 -92t139.5 -42.5v879q-78 -10 -131.5 -47t-88 -97.5t-50 -140.5t-15.5 -172z" />
<glyph unicode="&#xa3;" d="M113 0v78q49 18 79.5 59t50 93.5t28 110.5t10.5 112l10 202h-146v74h150q0 12 1 47t3 75t4 76t2 48q2 80 22.5 150.5t63.5 124t110.5 85t168.5 31.5q86 0 170 -15.5t141 -41.5v-240h-80v182q-47 16 -105.5 25.5t-123.5 9.5q-86 0 -139.5 -24.5t-84 -67.5t-44 -101.5 t-17.5 -125.5l-10 -238h416v-74h-418q0 -10 -1 -38.5t-3 -61.5t-4 -61.5t-2 -38.5q-2 -53 -9.5 -108.5t-22 -107t-36 -94.5t-53.5 -67h723v-78h-854z" />
<glyph unicode="&#xa5;" d="M25 1280v76h348v-76h-144l299 -600h9q4 10 27.5 55t56 107.5t69.5 134.5t69 135.5t55.5 109.5t29.5 58h-146v76h340v-76h-106q-84 -162 -168 -322.5t-170 -320.5h326v-62h-777v62h322q-84 160 -166 320.5t-164 322.5h-110zM143 397v66h777v-66h-347v-321h175v-76h-435v76 h172v321h-342z" />
<glyph unicode="&#xa7;" horiz-adv-x="905" d="M117 621q0 72 36.5 144.5t122.5 131.5q-74 49 -103.5 99.5t-29.5 113.5q0 72 26 127t72 92t109 56.5t137 19.5q102 0 165 -14.5t118 -30.5v-236h-76v170q-41 12 -89 21.5t-118 9.5q-47 0 -93 -10t-83 -35t-59.5 -65.5t-22.5 -100.5q0 -47 25 -82t63.5 -62.5t89 -51 t101.5 -48.5q66 -31 118 -61.5t88 -65t55 -76.5t19 -98q0 -61 -33.5 -127.5t-109.5 -138.5q53 -35 85 -70.5t48.5 -69.5t20.5 -62.5t4 -47.5q0 -82 -32 -140t-84 -96t-120.5 -55.5t-140.5 -17.5q-98 0 -162.5 16.5t-122.5 32.5v227h74v-167q53 -16 106.5 -24.5t110.5 -8.5 q55 0 106.5 13t91.5 41t63.5 70t23.5 99q0 74 -44 124t-111.5 87t-144.5 67.5t-144.5 70.5t-111.5 93.5t-44 135.5zM203 643q0 -68 35.5 -112t92 -75.5t124.5 -58t129 -57.5q61 57 91 116.5t30 100.5q0 55 -34 96t-87.5 77t-119 66.5t-126.5 65.5q-57 -45 -96 -102.5 t-39 -116.5z" />
<glyph unicode="&#xa8;" horiz-adv-x="968" d="M238 1237q0 29 20.5 48.5t44.5 19.5q33 0 52.5 -19.5t19.5 -48.5t-19.5 -47.5t-50.5 -18.5q-29 0 -48 18.5t-19 47.5zM569 1237q0 29 19.5 48.5t44.5 19.5q33 0 53.5 -19.5t20.5 -48.5t-20.5 -47.5t-53.5 -18.5q-27 0 -45.5 18.5t-18.5 47.5z" />
<glyph unicode="&#xa9;" horiz-adv-x="1683" d="M113 684q0 150 57 283t157.5 231t233.5 155.5t287 57.5q152 0 286 -57.5t234 -155.5t158.5 -231t58.5 -283q0 -152 -58.5 -284t-158.5 -230t-234 -155.5t-286 -57.5q-154 0 -287 57.5t-233.5 155.5t-157.5 230t-57 284zM172 684q0 -137 53.5 -258t145.5 -212t215 -143.5 t262 -52.5q141 0 264 52.5t214 143.5t143.5 212t52.5 258t-52.5 259t-143.5 212t-214 142.5t-264 52.5q-139 0 -262 -52.5t-215 -142.5t-145.5 -212t-53.5 -259zM440 668q0 78 18.5 171t66.5 174t130 135t211 54q86 0 147.5 -12t102.5 -29v-209h-65v158q-35 10 -85.5 18.5 t-97.5 8.5q-90 0 -155.5 -34t-108.5 -95.5t-64.5 -148.5t-21.5 -193q0 -88 13.5 -169t52.5 -142.5t107.5 -98.5t176.5 -37q43 0 115 8.5t131 26.5l16 -59q-47 -18 -123.5 -30.5t-146.5 -12.5q-113 0 -192.5 35.5t-130 103t-74 163t-23.5 214.5z" />
<glyph unicode="&#xaa;" horiz-adv-x="659" d="M41 727q0 94 70.5 141t175.5 52l184 8v51q0 92 -30.5 130t-121.5 38q-49 0 -104 -11.5t-111 -31.5l-20 55q61 25 125.5 39t124.5 14q104 0 158.5 -48t54.5 -169v-381h96q2 -14 4 -25t2 -26q-25 -10 -54.5 -15t-49.5 -5q-82 0 -76 75q-84 -61 -141.5 -70t-87.5 -9 q-59 0 -97.5 17t-61 45t-31.5 61.5t-9 64.5zM119 731q0 -127 143 -127q47 0 102.5 23.5t106.5 62.5v176l-192 -8q-78 -4 -119 -38t-41 -89z" />
<glyph unicode="&#xab;" horiz-adv-x="796" d="M137 336v74l277 299l39 -33l-215 -303l217 -303l-37 -33zM377 336v74l278 299l39 -33l-217 -303l219 -303l-37 -33z" />
<glyph unicode="&#xac;" d="M160 569v78h753v-424h-79v346h-674z" />
<glyph unicode="&#xad;" horiz-adv-x="696" d="M104 483v86h488v-86h-488z" />
<glyph unicode="&#xae;" horiz-adv-x="1159" d="M92 971q0 98 37 184t101.5 150.5t151.5 101.5t185 37t185.5 -37t153 -101.5t103.5 -150.5t38 -184t-38 -184.5t-103.5 -150t-153 -99t-185.5 -35.5t-185 35.5t-151.5 98t-101.5 148.5t-37 187zM145 971q0 -88 33 -164t90.5 -132.5t134 -89t164.5 -32.5t166 31.5t135.5 88 t91 133.5t33.5 165t-33.5 164.5t-91 134t-135.5 91.5t-166 34q-86 0 -162.5 -34t-134 -91.5t-91.5 -134t-34 -164.5zM356 676v49h52v498h-52v49h234q76 0 128 -37t52 -125q0 -41 -25.5 -90t-93.5 -72l109 -221l59 -8v-39q-14 -4 -30.5 -6t-32.5 -2q-20 0 -33.5 12t-20.5 25 l-114 233h-121v-217h72v-49h-183zM467 991h127q45 0 81 23.5t36 93.5q0 66 -35 90.5t-82 24.5h-127v-232z" />
<glyph unicode="&#xaf;" horiz-adv-x="968" d="M166 1225v84h618v-84h-618z" />
<glyph unicode="&#xb0;" horiz-adv-x="679" d="M94 1110q0 49 20.5 95t54.5 82t80 56.5t99 20.5q51 0 97.5 -20.5t79 -56.5t52 -82t19.5 -95q0 -53 -19.5 -98t-52 -78t-79 -52.5t-97.5 -19.5q-121 0 -187.5 72t-66.5 176zM160 1106q0 -76 54 -129t130 -53q37 0 69.5 14t58.5 38.5t41 58.5t15 71t-15 71.5t-41 60.5 t-58.5 41t-69.5 15t-70.5 -15t-59.5 -41t-40 -60.5t-14 -71.5z" />
<glyph unicode="&#xb1;" d="M156 16v72h762v-72h-762zM160 557v78h336v330h82v-330h335v-78h-335v-346h-82v346h-336z" />
<glyph unicode="&#xb4;" horiz-adv-x="968" d="M352 1147l219 311l82 -67l-252 -279z" />
<glyph unicode="&#xb6;" horiz-adv-x="985" d="M102 1067q0 72 26 134.5t72 109.5t107.5 74.5t132.5 27.5h478v-72h-138v-1706h-73v1706h-154v-1706h-231v74h155v1024h-37q-72 0 -134 26.5t-107 72t-71 105.5t-26 130z" />
<glyph unicode="&#xb7;" horiz-adv-x="342" d="M96 582q0 33 23.5 55t56.5 22t56.5 -22t23.5 -55t-24.5 -56.5t-53.5 -23.5q-33 0 -57.5 24.5t-24.5 55.5z" />
<glyph unicode="&#xb8;" horiz-adv-x="968" d="M367 -438q129 10 192.5 46t63.5 91q0 31 -18.5 49.5t-49.5 28.5t-70 13t-79 3l-23 33l180 225l47 -28q-33 -41 -65.5 -82t-63.5 -82q16 0 29.5 -1t28.5 -3q78 -8 127 -43t49 -103q0 -82 -87 -143.5t-259 -57.5z" />
<glyph unicode="&#xba;" horiz-adv-x="665" d="M53 868q0 63 14.5 126t48.5 112t89 78.5t135 29.5q82 0 135 -29.5t84 -78.5t43 -110.5t12 -123.5q0 -59 -12 -119.5t-44 -107.5t-88 -76.5t-142 -29.5q-82 0 -135.5 27.5t-84 73.5t-43 105.5t-12.5 122.5zM129 868q0 -51 7 -99t29.5 -85t64.5 -58.5t110 -21.5 q61 0 100 24.5t60.5 62.5t30 85t8.5 92t-7.5 96.5t-29 92.5t-60.5 68.5t-102 27.5t-104 -25.5t-65 -66.5t-33 -92t-9 -101z" />
<glyph unicode="&#xbb;" horiz-adv-x="796" d="M117 70l219 303l-217 303l39 33l278 -299v-74l-282 -299zM356 70l219 303l-217 303l39 33l279 -299v-74l-281 -299z" />
<glyph unicode="&#xbf;" horiz-adv-x="839" d="M74 -180q0 49 16 91t42 80t60.5 70.5t71.5 61.5q74 57 125 103t83 89t47.5 84t15.5 86q0 35 -5.5 75t-13.5 87l72 19q27 -121 26 -191q0 -96 -61.5 -185t-204.5 -200q-86 -66 -134 -125t-48 -139q0 -102 73.5 -145t184.5 -43q59 0 132 10t142 33v204h78v-268 q-88 -31 -179 -45t-163 -14q-182 0 -271 69.5t-89 192.5zM436 934q0 35 22.5 57.5t51.5 22.5q33 0 56.5 -23.5t23.5 -56.5q0 -31 -22.5 -53.5t-55.5 -22.5q-31 0 -53.5 22.5t-22.5 53.5z" />
<glyph unicode="&#xc0;" horiz-adv-x="1286" d="M41 0v76h119q20 63 54 167.5t74 231.5t85 263t85 262t73.5 230.5t54.5 168.5h119l428 -1323h114v-76h-362v76h149l-98 317h-584l-98 -317h156v-76h-369zM371 1755l82 66l219 -312l-49 -32zM381 475h528l-198 625l-64 209h-4l-65 -209q-8 -25 -31 -96.5t-52.5 -162.5 t-60.5 -189.5t-53 -176.5z" />
<glyph unicode="&#xc1;" horiz-adv-x="1286" d="M41 0v76h119q20 63 54 167.5t74 231.5t85 263t85 262t73.5 230.5t54.5 168.5h119l428 -1323h114v-76h-362v76h149l-98 317h-584l-98 -317h156v-76h-369zM381 475h528l-198 625l-64 209h-4l-65 -209q-8 -25 -31 -96.5t-52.5 -162.5t-60.5 -189.5t-53 -176.5zM606 1509 l219 312l82 -66l-252 -278z" />
<glyph unicode="&#xc2;" horiz-adv-x="1286" d="M41 0v76h119q20 63 54 167.5t74 231.5t85 263t85 262t73.5 230.5t54.5 168.5h119l428 -1323h114v-76h-362v76h149l-98 317h-584l-98 -317h156v-76h-369zM317 1516l289 264h70l291 -260l-33 -39l-293 205l-293 -207zM381 475h528l-198 625l-64 209h-4l-65 -209 q-8 -25 -31 -96.5t-52.5 -162.5t-60.5 -189.5t-53 -176.5z" />
<glyph unicode="&#xc3;" horiz-adv-x="1286" d="M41 0v76h119q20 63 54 167.5t74 231.5t85 263t85 262t73.5 230.5t54.5 168.5h119l428 -1323h114v-76h-362v76h149l-98 317h-584l-98 -317h156v-76h-369zM379 1597q20 53 60 91t93 38q33 0 71 -12t76 -26.5t72.5 -26.5t61.5 -12l107 80l36 -29q-18 -53 -56 -91t-91 -38 q-37 0 -75 12t-74.5 27.5t-70.5 28t-61 12.5l-110 -82zM381 475h528l-198 625l-64 209h-4l-65 -209q-8 -25 -31 -96.5t-52.5 -162.5t-60.5 -189.5t-53 -176.5z" />
<glyph unicode="&#xc4;" horiz-adv-x="1286" d="M41 0v76h119q20 63 54 167.5t74 231.5t85 263t85 262t73.5 230.5t54.5 168.5h119l428 -1323h114v-76h-362v76h149l-98 317h-584l-98 -317h156v-76h-369zM381 475h528l-198 625l-64 209h-4l-65 -209q-8 -25 -31 -96.5t-52.5 -162.5t-60.5 -189.5t-53 -176.5zM403 1565 q0 29 20.5 48t47.5 19q31 0 51.5 -18.5t20.5 -48.5q0 -29 -20.5 -47.5t-49.5 -18.5t-49.5 18.5t-20.5 47.5zM754 1565q0 29 18.5 48t44.5 19q31 0 52.5 -18.5t21.5 -48.5q0 -29 -21.5 -47.5t-52.5 -18.5q-29 0 -46 18.5t-17 47.5z" />
<glyph unicode="&#xc5;" horiz-adv-x="1286" d="M41 0v76h119q20 63 54 167.5t74 231.5t85 263t85 262t73.5 230.5t54.5 168.5h119l428 -1323h114v-76h-362v76h149l-98 317h-584l-98 -317h156v-76h-369zM381 475h528l-198 625l-64 209h-4l-65 -209q-8 -25 -31 -96.5t-52.5 -162.5t-60.5 -189.5t-53 -176.5zM453 1679 q0 39 14 73t41 60.5t61.5 42t75.5 15.5t76 -15.5t60.5 -41t40 -60.5t14.5 -74t-14.5 -72.5t-40 -59t-60.5 -40t-76 -14.5q-86 0 -139 54.5t-53 131.5zM516 1677q0 -59 35 -94t94 -35q57 0 91 35t34 94q0 55 -34 93t-91 38q-59 0 -94 -36.5t-35 -94.5z" />
<glyph unicode="&#xc6;" horiz-adv-x="1861" d="M6 0v76h125l789 1245h-121v78h952v-258h-78v180h-563v-547q20 0 62 1t96.5 3t114 3t113.5 2t96 2t63 1v-92l-545 8v-626h594v182h82v-258h-901v76h135v342h-571l-216 -342h162v-76h-389zM500 500h520v811h-10z" />
<glyph unicode="&#xc7;" horiz-adv-x="1107" d="M102 690q0 109 25 237t88.5 237.5t174 182t282.5 72.5q113 0 202 -16.5t146 -38.5v-281h-80v222q-47 14 -121 24t-143 10q-127 0 -217 -47t-148.5 -133t-86 -205.5t-27.5 -267.5q0 -121 17 -232.5t68.5 -197.5t145.5 -138t248 -52q29 0 69.5 2t87 8t94.5 15t91 22l20 -70 q-47 -18 -117.5 -31.5t-142.5 -19.5q-31 -37 -61.5 -75t-59.5 -79q16 0 29.5 -1t28.5 -3q78 -8 127 -43t49 -102q0 -82 -87 -143.5t-259 -57.5l-2 53q129 10 192.5 46t63.5 91q0 31 -18.5 49.5t-49.5 29t-69.5 13.5t-79.5 3l-23 32l143 183q-10 -2 -19 -2h-19 q-152 0 -258.5 49t-174 141t-98.5 222t-31 292z" />
<glyph unicode="&#xc8;" horiz-adv-x="1085" d="M82 0v76h135v1245h-127v76h899v-256h-78v180h-602v-547q20 0 65.5 1t104 3t123 3t122.5 2t103 2t66 1v-92l-584 8v-626h633v182h82v-258h-942zM356 1755l82 66l219 -312l-49 -32z" />
<glyph unicode="&#xc9;" horiz-adv-x="1085" d="M82 0v76h135v1245h-127v76h899v-256h-78v180h-602v-547q20 0 65.5 1t104 3t123 3t122.5 2t103 2t66 1v-92l-584 8v-626h633v182h82v-258h-942zM520 1509l219 312l82 -66l-252 -278z" />
<glyph unicode="&#xca;" horiz-adv-x="1085" d="M82 0v76h135v1245h-127v76h899v-256h-78v180h-602v-547q20 0 65.5 1t104 3t123 3t122.5 2t103 2t66 1v-92l-584 8v-626h633v182h82v-258h-942zM272 1516l289 264h70l291 -260l-33 -39l-293 205l-293 -207z" />
<glyph unicode="&#xcb;" horiz-adv-x="1085" d="M82 0v76h135v1245h-127v76h899v-256h-78v180h-602v-547q20 0 65.5 1t104 3t123 3t122.5 2t103 2t66 1v-92l-584 8v-626h633v182h82v-258h-942zM348 1565q0 29 20.5 48t47.5 19q31 0 51 -18.5t20 -48.5q0 -29 -20 -47.5t-49 -18.5t-49.5 18.5t-20.5 47.5zM698 1565 q0 29 18.5 48t45.5 19q31 0 52.5 -18.5t21.5 -48.5q0 -29 -21.5 -47.5t-52.5 -18.5q-29 0 -46.5 18.5t-17.5 47.5z" />
<glyph unicode="&#xcc;" horiz-adv-x="632" d="M76 1755l82 66l219 -312l-49 -32zM143 0v76h125v1245h-125v78h346v-78h-129v-1245h129v-76h-346z" />
<glyph unicode="&#xcd;" horiz-adv-x="632" d="M143 0v76h125v1245h-125v78h346v-78h-129v-1245h129v-76h-346zM248 1509l219 312l82 -66l-252 -278z" />
<glyph unicode="&#xce;" horiz-adv-x="632" d="M-2 1516l289 264h69l291 -260l-33 -39l-292 205l-293 -207zM143 0v76h125v1245h-125v78h346v-78h-129v-1245h129v-76h-346z" />
<glyph unicode="&#xcf;" horiz-adv-x="632" d="M76 1565q0 29 20.5 48t46.5 19q31 0 51.5 -18.5t20.5 -48.5q0 -29 -20.5 -47.5t-49.5 -18.5t-49 18.5t-20 47.5zM143 0v76h125v1245h-125v78h346v-78h-129v-1245h129v-76h-346zM426 1565q0 29 18.5 48t44.5 19q31 0 52.5 -18.5t21.5 -48.5q0 -29 -21.5 -47.5t-52.5 -18.5 q-29 0 -46 18.5t-17 47.5z" />
<glyph unicode="&#xd0;" horiz-adv-x="1280" d="M82 0v76h139v631h-131v65h131v549h-131v78h543q162 0 267.5 -56.5t166.5 -151.5t86 -222t25 -267q0 -145 -27 -272t-91.5 -223t-173 -151.5t-274.5 -55.5h-530zM315 78h283q29 0 77 2t101 18.5t108.5 52t100.5 103.5t72.5 173t27.5 259q0 156 -25.5 264.5t-66.5 179 t-92 109.5t-104.5 57.5t-101.5 21.5t-81 3h-299v-549h369v-65h-369v-629z" />
<glyph unicode="&#xd1;" horiz-adv-x="1417" d="M82 0v78h139v1243h-139v78h237l637 -998l146 -233h10v1153h-147v78h370v-78h-135v-1321h-86l-653 1016l-146 231h-6v-1169h146v-78h-373zM434 1604q20 53 60.5 91t93.5 38q33 0 70.5 -12.5t75.5 -27t73 -26.5t61 -12l107 80l37 -29q-18 -53 -56 -91t-92 -38 q-37 0 -74.5 12.5t-74.5 27.5t-71 27.5t-60 12.5l-111 -82z" />
<glyph unicode="&#xd2;" horiz-adv-x="1310" d="M102 686q0 143 28 275.5t93.5 233.5t174 162.5t270.5 61.5q164 0 268 -61.5t164.5 -162.5t84 -232.5t23.5 -270.5q0 -152 -33.5 -279.5t-101 -223t-169 -149.5t-236.5 -54q-158 0 -265.5 48t-174 139t-96.5 220t-30 293zM197 682q0 -305 110.5 -463t356.5 -158 q115 0 199.5 49.5t140 134.5t83 198.5t27.5 242.5q0 106 -16.5 223t-63.5 212.5t-135 157.5t-231 62t-234.5 -56t-143.5 -149.5t-72.5 -212t-20.5 -241.5zM401 1755l82 66l219 -312l-49 -32z" />
<glyph unicode="&#xd3;" horiz-adv-x="1310" d="M102 686q0 143 28 275.5t93.5 233.5t174 162.5t270.5 61.5q164 0 268 -61.5t164.5 -162.5t84 -232.5t23.5 -270.5q0 -152 -33.5 -279.5t-101 -223t-169 -149.5t-236.5 -54q-158 0 -265.5 48t-174 139t-96.5 220t-30 293zM197 682q0 -305 110.5 -463t356.5 -158 q115 0 199.5 49.5t140 134.5t83 198.5t27.5 242.5q0 106 -16.5 223t-63.5 212.5t-135 157.5t-231 62t-234.5 -56t-143.5 -149.5t-72.5 -212t-20.5 -241.5zM602 1509l219 312l82 -66l-252 -278z" />
<glyph unicode="&#xd4;" horiz-adv-x="1310" d="M102 686q0 143 28 275.5t93.5 233.5t174 162.5t270.5 61.5q164 0 268 -61.5t164.5 -162.5t84 -232.5t23.5 -270.5q0 -152 -33.5 -279.5t-101 -223t-169 -149.5t-236.5 -54q-158 0 -265.5 48t-174 139t-96.5 220t-30 293zM197 682q0 -305 110.5 -463t356.5 -158 q115 0 199.5 49.5t140 134.5t83 198.5t27.5 242.5q0 106 -16.5 223t-63.5 212.5t-135 157.5t-231 62t-234.5 -56t-143.5 -149.5t-72.5 -212t-20.5 -241.5zM344 1516l289 264h69l291 -260l-32 -39l-293 205l-293 -207z" />
<glyph unicode="&#xd5;" horiz-adv-x="1310" d="M102 686q0 143 28 275.5t93.5 233.5t174 162.5t270.5 61.5q164 0 268 -61.5t164.5 -162.5t84 -232.5t23.5 -270.5q0 -152 -33.5 -279.5t-101 -223t-169 -149.5t-236.5 -54q-158 0 -265.5 48t-174 139t-96.5 220t-30 293zM197 682q0 -305 110.5 -463t356.5 -158 q115 0 199.5 49.5t140 134.5t83 198.5t27.5 242.5q0 106 -16.5 223t-63.5 212.5t-135 157.5t-231 62t-234.5 -56t-143.5 -149.5t-72.5 -212t-20.5 -241.5zM401 1608q20 53 60.5 91t93.5 38q33 0 71 -12.5t75.5 -27t72.5 -26.5t62 -12l106 80l37 -29q-18 -53 -56 -91t-92 -38 q-37 0 -74.5 12.5t-74.5 27.5t-70.5 27.5t-60.5 12.5l-111 -82z" />
<glyph unicode="&#xd6;" horiz-adv-x="1310" d="M102 686q0 143 28 275.5t93.5 233.5t174 162.5t270.5 61.5q164 0 268 -61.5t164.5 -162.5t84 -232.5t23.5 -270.5q0 -152 -33.5 -279.5t-101 -223t-169 -149.5t-236.5 -54q-158 0 -265.5 48t-174 139t-96.5 220t-30 293zM197 682q0 -305 110.5 -463t356.5 -158 q115 0 199.5 49.5t140 134.5t83 198.5t27.5 242.5q0 106 -16.5 223t-63.5 212.5t-135 157.5t-231 62t-234.5 -56t-143.5 -149.5t-72.5 -212t-20.5 -241.5zM412 1565q0 29 20.5 48t46.5 19q31 0 51.5 -18.5t20.5 -48.5q0 -29 -20.5 -47.5t-49.5 -18.5t-49 18.5t-20 47.5z M762 1565q0 29 18.5 48t44.5 19q31 0 52.5 -18.5t21.5 -48.5q0 -29 -21.5 -47.5t-52.5 -18.5q-29 0 -46 18.5t-17 47.5z" />
<glyph unicode="&#xd8;" horiz-adv-x="1310" d="M98 -10l131 180q-68 92 -97.5 221t-29.5 295q0 143 28 275.5t93.5 233.5t174 162.5t270.5 61.5q127 0 217 -38t151 -103l105 143h76l-140 -190q74 -104 102.5 -244.5t28.5 -294.5q0 -152 -33.5 -279.5t-101 -223t-169 -149.5t-236.5 -54q-264 0 -398 137l-98 -133h-74z M197 682q0 -141 21.5 -247.5t68.5 -184.5l696 952q-51 63 -128 101t-187 38q-143 0 -234.5 -56t-143.5 -149.5t-72.5 -212t-20.5 -241.5zM324 197q113 -135 340 -136q115 0 199.5 49.5t140 134.5t83 198.5t27.5 242.5q0 57 -4 118.5t-15.5 122t-29.5 118t-47 106.5z" />
<glyph unicode="&#xd9;" horiz-adv-x="1384" d="M61 1321v78h371v-78h-153v-823q0 -215 105 -325t304 -110q205 0 309.5 110t104.5 325v823h-150v78h371v-78h-131v-827q0 -113 -31 -206t-94 -161t-157.5 -104.5t-221.5 -36.5q-131 0 -225 34.5t-155.5 100t-90.5 160t-29 213.5v827h-127zM457 1755l82 66l219 -312 l-49 -32z" />
<glyph unicode="&#xda;" horiz-adv-x="1384" d="M61 1321v78h371v-78h-153v-823q0 -215 105 -325t304 -110q205 0 309.5 110t104.5 325v823h-150v78h371v-78h-131v-827q0 -113 -31 -206t-94 -161t-157.5 -104.5t-221.5 -36.5q-131 0 -225 34.5t-155.5 100t-90.5 160t-29 213.5v827h-127zM662 1509l219 312l82 -66 l-252 -278z" />
<glyph unicode="&#xdb;" horiz-adv-x="1384" d="M61 1321v78h371v-78h-153v-823q0 -215 105 -325t304 -110q205 0 309.5 110t104.5 325v823h-150v78h371v-78h-131v-827q0 -113 -31 -206t-94 -161t-157.5 -104.5t-221.5 -36.5q-131 0 -225 34.5t-155.5 100t-90.5 160t-29 213.5v827h-127zM369 1516l299 260h73l301 -256 l-32 -37l-305 200l-304 -202z" />
<glyph unicode="&#xdc;" horiz-adv-x="1384" d="M61 1321v78h371v-78h-153v-823q0 -215 105 -325t304 -110q205 0 309.5 110t104.5 325v823h-150v78h371v-78h-131v-827q0 -113 -31 -206t-94 -161t-157.5 -104.5t-221.5 -36.5q-131 0 -225 34.5t-155.5 100t-90.5 160t-29 213.5v827h-127zM457 1565q0 29 20.5 48t46.5 19 q31 0 51.5 -18.5t20.5 -48.5q0 -29 -20.5 -47.5t-49.5 -18.5t-49 18.5t-20 47.5zM807 1565q0 29 18.5 48t44.5 19q31 0 52.5 -18.5t21.5 -48.5q0 -29 -21.5 -47.5t-52.5 -18.5q-29 0 -46 18.5t-17 47.5z" />
<glyph unicode="&#xdd;" horiz-adv-x="1099" d="M16 1321v76h344v-76h-137l207 -383l113 -215h8l115 207l219 391h-140v76h336v-76h-104l-385 -682v-563h172v-76h-434v76h170v557l-375 688h-109zM514 1507l219 312l82 -66l-252 -278z" />
<glyph unicode="&#xde;" horiz-adv-x="1089" d="M82 0v76h129v1245h-129v78h393v-78h-172v-191h324q82 0 155.5 -23.5t129 -71.5t88 -121.5t32.5 -174.5q0 -59 -16.5 -130.5t-60.5 -133t-119.5 -103.5t-194.5 -42h-338v-254h172v-76h-393zM303 406h336q55 0 108.5 15t96.5 53t69.5 101.5t26.5 157.5q0 82 -24.5 142.5 t-65.5 100.5t-97.5 59.5t-119.5 19.5h-330v-649z" />
<glyph unicode="&#xdf;" horiz-adv-x="1110" d="M47 0v76h160v727h-152v71h152v242q0 45 13 104.5t51 114t104.5 91t173.5 36.5q88 0 148.5 -24.5t95 -60.5t50 -78t15.5 -78q0 -76 -35 -129.5t-76.5 -97.5t-76.5 -85t-35 -90q0 -59 50 -118.5t124 -118.5h-2q41 -33 83 -67t75.5 -76t54 -92t20.5 -116q0 -43 -15 -89 t-50 -84t-94.5 -62.5t-145.5 -24.5q-72 0 -149.5 14.5t-128.5 37.5v208q18 0 36.5 -1t34.5 -1v-145q76 -25 129.5 -31t83.5 -6q104 0 156.5 51t52.5 121q0 92 -45 149.5t-100 102.5q-41 33 -87 74t-86 86t-66.5 91t-26.5 91q0 55 35.5 103.5t77.5 94.5t78 92t36 99 q0 12 -4 43t-25.5 62.5t-68.5 55t-133 23.5q-61 0 -106.5 -21.5t-76 -57t-45 -83.5t-14.5 -102v-1122h-246z" />
<glyph unicode="&#xe0;" horiz-adv-x="974" d="M68 264q0 70 26.5 123t72.5 89t110.5 54.5t138.5 22.5l282 14v92q0 74 -11 126.5t-37.5 84t-72 46t-112.5 14.5q-74 0 -153 -16.5t-156 -45.5l-25 66q86 37 176 56.5t176 19.5q145 0 223 -73t78 -249v-612h162l6 -53q-35 -16 -83 -22.5t-76 -6.5q-47 0 -71 19.5t-24 78.5 v27q-63 -49 -117.5 -76t-99.5 -39t-78.5 -14t-58.5 -2q-82 0 -135 26.5t-85 67.5t-44 90t-12 92zM160 272q0 -211 219 -211q152 0 319 144v293l-295 -15q-121 -6 -182 -62t-61 -149zM260 1391l82 67l219 -311l-49 -35z" />
<glyph unicode="&#xe1;" horiz-adv-x="974" d="M68 264q0 70 26.5 123t72.5 89t110.5 54.5t138.5 22.5l282 14v92q0 74 -11 126.5t-37.5 84t-72 46t-112.5 14.5q-74 0 -153 -16.5t-156 -45.5l-25 66q86 37 176 56.5t176 19.5q145 0 223 -73t78 -249v-612h162l6 -53q-35 -16 -83 -22.5t-76 -6.5q-47 0 -71 19.5t-24 78.5 v27q-63 -49 -117.5 -76t-99.5 -39t-78.5 -14t-58.5 -2q-82 0 -135 26.5t-85 67.5t-44 90t-12 92zM160 272q0 -211 219 -211q152 0 319 144v293l-295 -15q-121 -6 -182 -62t-61 -149zM348 1147l219 311l82 -67l-252 -279z" />
<glyph unicode="&#xe2;" horiz-adv-x="974" d="M68 264q0 70 26.5 123t72.5 89t110.5 54.5t138.5 22.5l282 14v92q0 74 -11 126.5t-37.5 84t-72 46t-112.5 14.5q-74 0 -153 -16.5t-156 -45.5l-25 66q86 37 176 56.5t176 19.5q145 0 223 -73t78 -249v-612h162l6 -53q-35 -16 -83 -22.5t-76 -6.5q-47 0 -71 19.5t-24 78.5 v27q-63 -49 -117.5 -76t-99.5 -39t-78.5 -14t-58.5 -2q-82 0 -135 26.5t-85 67.5t-44 90t-12 92zM156 1141l288 272h72l289 -268l-31 -39l-295 205l-293 -207zM160 272q0 -211 219 -211q152 0 319 144v293l-295 -15q-121 -6 -182 -62t-61 -149z" />
<glyph unicode="&#xe3;" horiz-adv-x="974" d="M68 264q0 70 26.5 123t72.5 89t110.5 54.5t138.5 22.5l282 14v92q0 74 -11 126.5t-37.5 84t-72 46t-112.5 14.5q-74 0 -153 -16.5t-156 -45.5l-25 66q86 37 176 56.5t176 19.5q145 0 223 -73t78 -249v-612h162l6 -53q-35 -16 -83 -22.5t-76 -6.5q-47 0 -71 19.5t-24 78.5 v27q-63 -49 -117.5 -76t-99.5 -39t-78.5 -14t-58.5 -2q-82 0 -135 26.5t-85 67.5t-44 90t-12 92zM160 272q0 -211 219 -211q152 0 319 144v293l-295 -15q-121 -6 -182 -62t-61 -149zM199 1212q20 53 60 91t93 38q33 0 71 -12t76 -26.5t72.5 -26.5t61.5 -12l106 79l37 -28 q-18 -53 -56 -91t-91 -38q-37 0 -75 12t-75 27.5t-70.5 28t-60.5 12.5l-110 -82z" />
<glyph unicode="&#xe4;" horiz-adv-x="974" d="M68 264q0 70 26.5 123t72.5 89t110.5 54.5t138.5 22.5l282 14v92q0 74 -11 126.5t-37.5 84t-72 46t-112.5 14.5q-74 0 -153 -16.5t-156 -45.5l-25 66q86 37 176 56.5t176 19.5q145 0 223 -73t78 -249v-612h162l6 -53q-35 -16 -83 -22.5t-76 -6.5q-47 0 -71 19.5t-24 78.5 v27q-63 -49 -117.5 -76t-99.5 -39t-78.5 -14t-58.5 -2q-82 0 -135 26.5t-85 67.5t-44 90t-12 92zM160 272q0 -211 219 -211q152 0 319 144v293l-295 -15q-121 -6 -182 -62t-61 -149zM225 1237q0 29 20.5 48.5t45.5 19.5q33 0 52 -19.5t19 -48.5t-19 -47.5t-50 -18.5 q-29 0 -48.5 18.5t-19.5 47.5zM557 1237q0 29 19.5 48.5t44.5 19.5q33 0 53 -19.5t20 -48.5t-20 -47.5t-53 -18.5q-27 0 -45.5 18.5t-18.5 47.5z" />
<glyph unicode="&#xe5;" horiz-adv-x="974" d="M68 264q0 70 26.5 123t72.5 89t110.5 54.5t138.5 22.5l282 14v92q0 74 -11 126.5t-37.5 84t-72 46t-112.5 14.5q-74 0 -153 -16.5t-156 -45.5l-25 66q86 37 176 56.5t176 19.5q145 0 223 -73t78 -249v-612h162l6 -53q-35 -16 -83 -22.5t-76 -6.5q-47 0 -71 19.5t-24 78.5 v27q-63 -49 -117.5 -76t-99.5 -39t-78.5 -14t-58.5 -2q-82 0 -135 26.5t-85 67.5t-44 90t-12 92zM160 272q0 -211 219 -211q152 0 319 144v293l-295 -15q-121 -6 -182 -62t-61 -149zM285 1311q0 39 14 72.5t41 60t61.5 42t75.5 15.5t76 -15.5t60.5 -41t40 -60t14.5 -73.5 t-14.5 -73t-40 -59.5t-60.5 -40t-76 -14.5q-86 0 -139 54.5t-53 132.5zM348 1309q0 -59 35 -94t94 -35q57 0 91 34.5t34 94.5q0 55 -34 93t-91 38q-59 0 -94 -37t-35 -94z" />
<glyph unicode="&#xe6;" horiz-adv-x="1572" d="M76 266q0 70 25.5 123t71.5 90t108.5 56.5t136.5 19.5h305v104q0 150 -56.5 210.5t-193.5 60.5q-74 0 -152.5 -16.5t-156.5 -45.5l-25 66q86 37 176.5 56.5t176.5 19.5q117 0 192.5 -45t103.5 -154q20 41 50 78t71 64.5t95.5 44t121.5 16.5q96 0 161 -29t106 -74 t61.5 -100t29.5 -108.5t10 -97.5t1 -66v-60h-684q0 -82 12.5 -156.5t48 -133t96 -93.5t154.5 -35q92 0 162 17.5t156 58.5l26 -61q-84 -45 -162.5 -66.5t-175.5 -21.5q-129 0 -207.5 42t-125.5 113q-80 -59 -150 -92t-127 -47t-99 -16t-67 -2q-82 0 -135 27.5t-85 68.5 t-44 91t-12 93zM168 272q0 -211 219 -211q35 0 82 8.5t98 27t103.5 45t95.5 63.5q-25 57 -34 126.5t-11 147.5h-309q-121 0 -182.5 -57t-61.5 -150zM813 555h596q0 84 -14.5 154.5t-47 121t-87 79t-134.5 28.5q-84 0 -141 -32t-93 -86t-54.5 -122.5t-24.5 -142.5z" />
<glyph unicode="&#xe7;" horiz-adv-x="872" d="M82 481q0 76 16.5 169t62.5 174t128 136.5t213 55.5q78 0 152.5 -15.5t129.5 -39.5v-232h-71v180q-57 16 -104.5 23.5t-100.5 7.5q-90 0 -153.5 -34t-104.5 -95t-59.5 -145t-18.5 -185q0 -86 14.5 -161.5t50 -134t95 -92.5t151.5 -34q86 0 155 18.5t153 53.5l24 -59 q-45 -27 -103.5 -46.5t-123.5 -29.5q-29 -35 -55.5 -68.5t-51.5 -68.5q16 0 29.5 -1t28.5 -3q78 -8 127 -43t49 -103q0 -82 -87 -143.5t-259 -57.5l-2 54q129 10 192.5 46t63.5 91q0 31 -18.5 49.5t-49.5 28.5t-70 13t-79 3l-23 33l129 162h-23q-113 0 -190.5 36.5 t-125.5 102.5t-69.5 156t-21.5 198z" />
<glyph unicode="&#xe8;" horiz-adv-x="929" d="M82 494q0 39 5 92t19.5 110.5t42 114.5t72.5 102t109.5 73t156.5 28q96 0 161 -29t106 -74t61.5 -100t29.5 -108.5t10 -97.5t1 -66v-60h-684q0 -82 12.5 -156.5t48 -133t96 -93.5t154.5 -35q92 0 162 17.5t156 58.5l26 -61q-84 -45 -162.5 -66.5t-175.5 -21.5 q-123 0 -202.5 40t-124.5 108.5t-62.5 160.5t-17.5 197zM174 555h596q0 84 -14.5 154.5t-47 121t-87 79t-134.5 28.5q-84 0 -141 -32t-93 -86t-54.5 -122.5t-24.5 -142.5zM233 1391l82 67l220 -311l-50 -35z" />
<glyph unicode="&#xe9;" horiz-adv-x="929" d="M82 494q0 39 5 92t19.5 110.5t42 114.5t72.5 102t109.5 73t156.5 28q96 0 161 -29t106 -74t61.5 -100t29.5 -108.5t10 -97.5t1 -66v-60h-684q0 -82 12.5 -156.5t48 -133t96 -93.5t154.5 -35q92 0 162 17.5t156 58.5l26 -61q-84 -45 -162.5 -66.5t-175.5 -21.5 q-123 0 -202.5 40t-124.5 108.5t-62.5 160.5t-17.5 197zM174 555h596q0 84 -14.5 154.5t-47 121t-87 79t-134.5 28.5q-84 0 -141 -32t-93 -86t-54.5 -122.5t-24.5 -142.5zM379 1147l219 311l82 -67l-252 -279z" />
<glyph unicode="&#xea;" horiz-adv-x="929" d="M82 494q0 39 5 92t19.5 110.5t42 114.5t72.5 102t109.5 73t156.5 28q96 0 161 -29t106 -74t61.5 -100t29.5 -108.5t10 -97.5t1 -66v-60h-684q0 -82 12.5 -156.5t48 -133t96 -93.5t154.5 -35q92 0 162 17.5t156 58.5l26 -61q-84 -45 -162.5 -66.5t-175.5 -21.5 q-123 0 -202.5 40t-124.5 108.5t-62.5 160.5t-17.5 197zM170 1141l289 272h71l289 -268l-31 -39l-294 205l-293 -207zM174 555h596q0 84 -14.5 154.5t-47 121t-87 79t-134.5 28.5q-84 0 -141 -32t-93 -86t-54.5 -122.5t-24.5 -142.5z" />
<glyph unicode="&#xeb;" horiz-adv-x="929" d="M82 494q0 39 5 92t19.5 110.5t42 114.5t72.5 102t109.5 73t156.5 28q96 0 161 -29t106 -74t61.5 -100t29.5 -108.5t10 -97.5t1 -66v-60h-684q0 -82 12.5 -156.5t48 -133t96 -93.5t154.5 -35q92 0 162 17.5t156 58.5l26 -61q-84 -45 -162.5 -66.5t-175.5 -21.5 q-123 0 -202.5 40t-124.5 108.5t-62.5 160.5t-17.5 197zM174 555h596q0 84 -14.5 154.5t-47 121t-87 79t-134.5 28.5q-84 0 -141 -32t-93 -86t-54.5 -122.5t-24.5 -142.5zM272 1237q0 29 20.5 48.5t45.5 19.5q33 0 52.5 -19.5t19.5 -48.5t-19.5 -47.5t-50.5 -18.5 q-29 0 -48.5 18.5t-19.5 47.5zM604 1237q0 29 19.5 48.5t44.5 19.5q33 0 53 -19.5t20 -48.5t-20 -47.5t-53 -18.5q-27 0 -45.5 18.5t-18.5 47.5z" />
<glyph unicode="&#xec;" horiz-adv-x="530" d="M-14 1391l82 67l219 -311l-49 -35zM104 924v73h209v-919h148l2 -55q-35 -16 -74 -23.5t-67 -7.5q-47 0 -70 20.5t-25 81.5v830h-123z" />
<glyph unicode="&#xed;" horiz-adv-x="530" d="M104 924v73h209v-919h148l2 -55q-35 -16 -74 -23.5t-67 -7.5q-47 0 -70 20.5t-25 81.5v830h-123zM135 1147l219 311l82 -67l-252 -279z" />
<glyph unicode="&#xee;" horiz-adv-x="530" d="M-86 1141l289 272h71l289 -268l-31 -39l-294 205l-293 -207zM104 924v73h209v-919h148l2 -55q-35 -16 -74 -23.5t-67 -7.5q-47 0 -70 20.5t-25 81.5v830h-123z" />
<glyph unicode="&#xef;" horiz-adv-x="530" d="M10 1237q0 29 20.5 48.5t45.5 19.5q33 0 52 -19.5t19 -48.5t-19 -47.5t-50 -18.5q-29 0 -48.5 18.5t-19.5 47.5zM104 924v73h209v-919h148l2 -55q-35 -16 -74 -23.5t-67 -7.5q-47 0 -70 20.5t-25 81.5v830h-123zM342 1237q0 29 19.5 48.5t44.5 19.5q33 0 53 -19.5 t20 -48.5t-20 -47.5t-53 -18.5q-27 0 -45.5 18.5t-18.5 47.5z" />
<glyph unicode="&#xf0;" horiz-adv-x="962" d="M84 434q0 82 22.5 167t70.5 154.5t125 113.5t185 44q80 0 152 -24.5t127 -65.5q-29 98 -72 178t-100 150l-191 -129l-36 49l186 127q-55 59 -117.5 107.5t-134.5 91.5l35 55q162 -82 280 -211l177 121l34 -53l-170 -115q111 -135 169.5 -303t58.5 -359q0 -76 -15.5 -171 t-59.5 -178t-125 -140t-212 -57q-119 0 -194.5 44t-118.5 109.5t-59.5 144t-16.5 150.5zM168 436q0 -61 12.5 -127.5t47 -122t97 -90.5t160.5 -35q104 0 166 50.5t95.5 122t44 150.5t10.5 138q0 53 -5 101.5t-16 101.5q-70 63 -146.5 89t-148.5 26q-90 0 -150.5 -39 t-97 -98.5t-53 -130t-16.5 -136.5z" />
<glyph unicode="&#xf1;" horiz-adv-x="1122" d="M41 924v71h246v-92q2 0 4 -2q92 53 192.5 83t171.5 30q98 0 152.5 -28t81 -71t32 -95t5.5 -99v-645h155v-53q-35 -16 -76.5 -22.5t-70.5 -6.5q-47 0 -69.5 19.5t-22.5 78.5v588q0 57 -4 104t-24.5 81t-60.5 52.5t-110 18.5q-41 0 -88 -10.5t-94 -26.5t-92 -35.5 t-82 -40.5v-823h-86v924h-160zM242 1239q20 53 60 91t93 38q33 0 71 -12.5t76 -26.5t72.5 -26.5t61.5 -12.5l106 80l37 -29q-18 -53 -56 -91t-91 -38q-37 0 -75 12.5t-75 28t-70.5 27.5t-60.5 12l-110 -82z" />
<glyph unicode="&#xf2;" horiz-adv-x="964" d="M82 487q0 96 21.5 190.5t69.5 169.5t126 121t193 46q119 0 194.5 -46t119.5 -120t60.5 -167t16.5 -187q0 -92 -17.5 -182.5t-63.5 -163t-125 -117.5t-202 -45q-117 0 -192.5 42t-119.5 111.5t-62.5 160.5t-18.5 187zM172 485q0 -82 11.5 -157.5t46 -135t97 -95.5 t165.5 -36q94 0 153.5 39t93 100.5t45 137t11.5 149.5t-11.5 153t-44 145.5t-92 109.5t-155.5 43t-158 -41t-97.5 -105.5t-50 -145.5t-14.5 -161zM240 1391l82 67l219 -311l-49 -35z" />
<glyph unicode="&#xf3;" horiz-adv-x="964" d="M82 487q0 96 21.5 190.5t69.5 169.5t126 121t193 46q119 0 194.5 -46t119.5 -120t60.5 -167t16.5 -187q0 -92 -17.5 -182.5t-63.5 -163t-125 -117.5t-202 -45q-117 0 -192.5 42t-119.5 111.5t-62.5 160.5t-18.5 187zM172 485q0 -82 11.5 -157.5t46 -135t97 -95.5 t165.5 -36q94 0 153.5 39t93 100.5t45 137t11.5 149.5t-11.5 153t-44 145.5t-92 109.5t-155.5 43t-158 -41t-97.5 -105.5t-50 -145.5t-14.5 -161zM365 1147l219 311l82 -67l-252 -279z" />
<glyph unicode="&#xf4;" horiz-adv-x="964" d="M82 487q0 96 21.5 190.5t69.5 169.5t126 121t193 46q119 0 194.5 -46t119.5 -120t60.5 -167t16.5 -187q0 -92 -17.5 -182.5t-63.5 -163t-125 -117.5t-202 -45q-117 0 -192.5 42t-119.5 111.5t-62.5 160.5t-18.5 187zM172 485q0 -82 11.5 -157.5t46 -135t97 -95.5 t165.5 -36q94 0 153.5 39t93 100.5t45 137t11.5 149.5t-11.5 153t-44 145.5t-92 109.5t-155.5 43t-158 -41t-97.5 -105.5t-50 -145.5t-14.5 -161zM178 1141l289 272h72l288 -268l-30 -39l-295 205l-293 -207z" />
<glyph unicode="&#xf5;" horiz-adv-x="964" d="M82 487q0 96 21.5 190.5t69.5 169.5t126 121t193 46q119 0 194.5 -46t119.5 -120t60.5 -167t16.5 -187q0 -92 -17.5 -182.5t-63.5 -163t-125 -117.5t-202 -45q-117 0 -192.5 42t-119.5 111.5t-62.5 160.5t-18.5 187zM172 485q0 -82 11.5 -157.5t46 -135t97 -95.5 t165.5 -36q94 0 153.5 39t93 100.5t45 137t11.5 149.5t-11.5 153t-44 145.5t-92 109.5t-155.5 43t-158 -41t-97.5 -105.5t-50 -145.5t-14.5 -161zM227 1212q20 53 60.5 91t93.5 38q33 0 70.5 -12t75.5 -26.5t73 -26.5t62 -12l106 79l37 -28q-18 -53 -56 -91t-92 -38 q-37 0 -74.5 12t-74.5 27.5t-71 28t-60 12.5l-111 -82z" />
<glyph unicode="&#xf6;" horiz-adv-x="964" d="M82 487q0 96 21.5 190.5t69.5 169.5t126 121t193 46q119 0 194.5 -46t119.5 -120t60.5 -167t16.5 -187q0 -92 -17.5 -182.5t-63.5 -163t-125 -117.5t-202 -45q-117 0 -192.5 42t-119.5 111.5t-62.5 160.5t-18.5 187zM172 485q0 -82 11.5 -157.5t46 -135t97 -95.5 t165.5 -36q94 0 153.5 39t93 100.5t45 137t11.5 149.5t-11.5 153t-44 145.5t-92 109.5t-155.5 43t-158 -41t-97.5 -105.5t-50 -145.5t-14.5 -161zM276 1237q0 29 20.5 48.5t45.5 19.5q33 0 52.5 -19.5t19.5 -48.5t-19.5 -47.5t-50.5 -18.5q-29 0 -48.5 18.5t-19.5 47.5z M608 1237q0 29 19.5 48.5t44.5 19.5q33 0 53 -19.5t20 -48.5t-20 -47.5t-53 -18.5q-27 0 -45.5 18.5t-18.5 47.5z" />
<glyph unicode="&#xf7;" d="M160 569v76h753v-76h-753zM463 311q0 31 22.5 52.5t55.5 21.5q31 0 53 -21.5t22 -52.5q0 -35 -22.5 -57.5t-52.5 -22.5q-33 0 -55.5 24t-22.5 56zM463 903q0 31 22.5 53.5t55.5 22.5q31 0 53 -22.5t22 -53.5q0 -35 -22.5 -57.5t-52.5 -22.5q-33 0 -55.5 23.5t-22.5 56.5z " />
<glyph unicode="&#xf8;" horiz-adv-x="964" d="M78 -12l98 133q-53 72 -73.5 167t-20.5 199q0 96 21.5 190.5t69.5 169.5t126 121t193 46q92 0 155.5 -28t108.5 -75l73 101l60 2l-101 -142q53 -76 74 -176t21 -202q0 -92 -17.5 -182.5t-63.5 -163t-125 -117.5t-202 -45q-92 0 -156.5 25.5t-109.5 70.5l-68 -94h-63z M172 485q0 -82 11.5 -157.5t45.5 -134.5l476 649q-35 43 -86 69.5t-127 26.5q-96 0 -158 -41t-97.5 -105.5t-50 -145.5t-14.5 -161zM260 150q35 -41 91.5 -65t140.5 -24q94 0 153.5 39t93 100.5t45 137t11.5 149.5q0 78 -13.5 160t-48.5 152z" />
<glyph unicode="&#xf9;" horiz-adv-x="1105" d="M41 924v71h244v-684q0 -59 5 -106t24.5 -81t59.5 -52.5t107 -18.5q33 0 75 9.5t88 28t92 47t87 67.5v719h-151v71q59 0 117.5 1t117.5 1v-2h2q0 -231 -1 -459.5t-1 -459.5h152v-53q-35 -16 -75 -23.5t-66 -7.5q-47 0 -70 20.5t-25 79.5q-2 10 -2 31q-55 -49 -108.5 -77 t-99.5 -43t-82.5 -19t-59.5 -4q-100 0 -155.5 28.5t-81 72.5t-29.5 96t-4 99v648h-160zM279 1391l81 67l220 -311l-50 -35z" />
<glyph unicode="&#xfa;" horiz-adv-x="1105" d="M41 924v71h244v-684q0 -59 5 -106t24.5 -81t59.5 -52.5t107 -18.5q33 0 75 9.5t88 28t92 47t87 67.5v719h-151v71q59 0 117.5 1t117.5 1v-2h2q0 -231 -1 -459.5t-1 -459.5h152v-53q-35 -16 -75 -23.5t-66 -7.5q-47 0 -70 20.5t-25 79.5q-2 10 -2 31q-55 -49 -108.5 -77 t-99.5 -43t-82.5 -19t-59.5 -4q-100 0 -155.5 28.5t-81 72.5t-29.5 96t-4 99v648h-160zM403 1147l220 311l82 -67l-252 -279z" />
<glyph unicode="&#xfb;" horiz-adv-x="1105" d="M41 924v71h244v-684q0 -59 5 -106t24.5 -81t59.5 -52.5t107 -18.5q33 0 75 9.5t88 28t92 47t87 67.5v719h-151v71q59 0 117.5 1t117.5 1v-2h2q0 -231 -1 -459.5t-1 -459.5h152v-53q-35 -16 -75 -23.5t-66 -7.5q-47 0 -70 20.5t-25 79.5q-2 10 -2 31q-55 -49 -108.5 -77 t-99.5 -43t-82.5 -19t-59.5 -4q-100 0 -155.5 28.5t-81 72.5t-29.5 96t-4 99v648h-160zM211 1141l289 272h71l289 -268l-31 -39l-294 205l-293 -207z" />
<glyph unicode="&#xfc;" horiz-adv-x="1105" d="M41 924v71h244v-684q0 -59 5 -106t24.5 -81t59.5 -52.5t107 -18.5q33 0 75 9.5t88 28t92 47t87 67.5v719h-151v71q59 0 117.5 1t117.5 1v-2h2q0 -231 -1 -459.5t-1 -459.5h152v-53q-35 -16 -75 -23.5t-66 -7.5q-47 0 -70 20.5t-25 79.5q-2 10 -2 31q-55 -49 -108.5 -77 t-99.5 -43t-82.5 -19t-59.5 -4q-100 0 -155.5 28.5t-81 72.5t-29.5 96t-4 99v648h-160zM307 1237q0 29 20.5 48.5t45.5 19.5q33 0 52 -19.5t19 -48.5t-19 -47.5t-50 -18.5q-29 0 -48.5 18.5t-19.5 47.5zM639 1237q0 29 19.5 48.5t43.5 19.5q33 0 53.5 -19.5t20.5 -48.5 t-20.5 -47.5t-53.5 -18.5q-27 0 -45 18.5t-18 47.5z" />
<glyph unicode="&#xfd;" horiz-adv-x="1017" d="M35 922v73h168l227 -696l72 -231h10l82 249q27 80 53.5 164t52 164t48 150.5t40.5 126.5h-139v73h330v-73h-107q-94 -293 -188 -581t-190 -579q-35 -102 -82 -153t-140 -51q-23 0 -71.5 4t-132.5 26l16 66q55 -10 94 -16.5t74 -6.5q27 0 50.5 5.5t44 20.5t37.5 45t34 81 l71 217h-45l-307 922h-102zM352 1147l219 311l82 -67l-252 -279z" />
<glyph unicode="&#xfe;" horiz-adv-x="1021" d="M14 1348v73h250v-534q63 53 147.5 88t172.5 35q100 0 168.5 -39t109.5 -105.5t59.5 -157t18.5 -190.5q0 -115 -20.5 -212t-66.5 -170t-120 -113.5t-178 -40.5q-61 0 -140 18t-151 63v-421h178v-72h-426v72h162v1706h-164zM264 145q20 -16 53 -31.5t72 -27.5t80 -19.5 t82 -7.5q63 0 117.5 23.5t94.5 79t63.5 143.5t23.5 217q0 115 -20.5 194t-57.5 127t-89 68.5t-118 20.5q-37 0 -80 -10.5t-84 -27.5t-77.5 -40t-59.5 -47v-662z" />
<glyph unicode="&#xff;" horiz-adv-x="1017" d="M35 922v73h168l227 -696l72 -231h10l82 249q27 80 53.5 164t52 164t48 150.5t40.5 126.5h-139v73h330v-73h-107q-94 -293 -188 -581t-190 -579q-35 -102 -82 -153t-140 -51q-23 0 -71.5 4t-132.5 26l16 66q55 -10 94 -16.5t74 -6.5q27 0 50.5 5.5t44 20.5t37.5 45t34 81 l71 217h-45l-307 922h-102zM274 1237q0 29 20.5 48.5t45.5 19.5q33 0 52.5 -19.5t19.5 -48.5t-19.5 -47.5t-50.5 -18.5q-29 0 -48.5 18.5t-19.5 47.5zM606 1237q0 29 19.5 48.5t44.5 19.5q33 0 53 -19.5t20 -48.5t-20 -47.5t-53 -18.5q-27 0 -45.5 18.5t-18.5 47.5z" />
<glyph unicode="&#x131;" horiz-adv-x="530" d="M104 924v73h209v-919h148l2 -55q-35 -16 -74 -23.5t-67 -7.5q-47 0 -70 20.5t-25 81.5v830h-123z" />
<glyph unicode="&#x152;" horiz-adv-x="1556" d="M104 686q0 143 28 275.5t94.5 233.5t175 162.5t270.5 61.5q92 0 170 -22h614v-256h-78v180h-557v-547q18 0 61.5 1t96.5 3t111.5 3t111.5 2t95 2t63 1v-92l-539 8v-626h588v182h82v-258h-696q-29 -6 -59.5 -10t-63.5 -4q-158 0 -265.5 48t-175 139t-97.5 220t-30 293z M199 682q0 -305 110.5 -463t356.5 -158q16 0 30.5 1t30.5 4v1273q-12 2 -26.5 2h-28.5q-143 0 -235.5 -56t-144.5 -149.5t-72.5 -212t-20.5 -241.5z" />
<glyph unicode="&#x153;" horiz-adv-x="1652" d="M86 487q0 96 21.5 190.5t69.5 169.5t126 121t193 46q76 0 133 -19.5t99 -54.5t70.5 -82t47.5 -100q18 49 48 95t73 82t102 57.5t139 21.5q96 0 160 -29t104.5 -74t62 -100t31 -108.5t10.5 -97.5t1 -66v-60h-686q0 -82 13.5 -156.5t48 -133t96 -93.5t155.5 -35 q92 0 162 17.5t156 58.5l26 -61q-84 -45 -162.5 -66.5t-177.5 -21.5q-158 0 -243.5 64.5t-122.5 170.5q-41 -102 -126 -169.5t-237 -67.5q-117 0 -192.5 42t-119.5 111.5t-62.5 160.5t-18.5 187zM176 485q0 -82 11.5 -157.5t46 -135t97 -95.5t165.5 -36q94 0 153.5 39 t93 100.5t45 137t11.5 149.5t-11.5 153t-44 145.5t-92 109.5t-155.5 43t-158 -41t-97.5 -105.5t-50 -145.5t-14.5 -161zM893 555h596q0 84 -14.5 154.5t-47 121t-87 79t-134.5 28.5q-84 0 -140 -32t-93 -86t-55.5 -122.5t-24.5 -142.5z" />
<glyph unicode="&#x178;" horiz-adv-x="1099" d="M16 1321v76h344v-76h-137l207 -383l113 -215h8l115 207l219 391h-140v76h336v-76h-104l-385 -682v-563h172v-76h-434v76h170v557l-375 688h-109zM307 1565q0 29 20.5 48t47.5 19q31 0 51 -18.5t20 -48.5q0 -29 -20 -47.5t-49 -18.5t-49.5 18.5t-20.5 47.5zM657 1565 q0 29 18.5 48t45.5 19q31 0 52.5 -18.5t21.5 -48.5q0 -29 -21.5 -47.5t-52.5 -18.5q-29 0 -46.5 18.5t-17.5 47.5z" />
<glyph unicode="&#x192;" d="M72 -221l26 59q37 -10 60.5 -14t50.5 -4q106 0 152.5 75.5t74.5 221.5q10 53 21.5 134t21.5 169t19.5 171t17.5 142h-194v70h202l29 211q10 80 31.5 146.5t56.5 114.5t87 74.5t124 26.5q39 0 77 -7t72 -17l-18 -64q-47 10 -72.5 13.5t-60.5 3.5q-53 0 -90 -20.5 t-62.5 -58.5t-41 -91.5t-23.5 -118.5q-6 -47 -15.5 -107.5t-13.5 -105.5h215v-70h-223q-4 -27 -10 -77t-14.5 -112.5t-15.5 -130t-15.5 -127t-14.5 -105.5t-10 -64q-29 -186 -99.5 -278.5t-199.5 -92.5q-39 0 -75 7t-70 26z" />
<glyph unicode="&#x2c6;" horiz-adv-x="968" d="M147 1141l289 272h72l289 -268l-31 -39l-295 205l-293 -207z" />
<glyph unicode="&#x2c7;" horiz-adv-x="968" d="M158 1401l30 37l293 -207l293 205l33 -37l-291 -269h-70z" />
<glyph unicode="&#x2d8;" horiz-adv-x="1019" d="M201 1352l67 43q47 -70 107.5 -115t124.5 -45q43 0 109.5 27.5t158.5 119.5l39 -28q-84 -111 -162.5 -155t-150.5 -44q-47 0 -89.5 16.5t-79 44t-67.5 63.5t-57 73z" />
<glyph unicode="&#x2d9;" horiz-adv-x="968" d="M414 1247q0 31 21.5 52.5t49.5 21.5q31 0 52.5 -21.5t21.5 -52.5q0 -29 -21.5 -50t-52.5 -21q-29 0 -50 21t-21 50z" />
<glyph unicode="&#x2da;" horiz-adv-x="968" d="M291 1311q0 39 14 72.5t41 60t61.5 42t75.5 15.5t76 -15.5t60.5 -41t40 -60t14.5 -73.5t-14.5 -73t-40 -59.5t-60.5 -40t-76 -14.5q-86 0 -139 54.5t-53 132.5zM354 1309q0 -59 35 -94t94 -35q57 0 91 34.5t34 94.5q0 55 -34 93t-91 38q-59 0 -94 -37t-35 -94z" />
<glyph unicode="&#x2db;" horiz-adv-x="1024" d="M553 -268q0 31 8 67.5t31.5 77.5t63.5 85t106 89q6 -4 12 -11t10 -11q-74 -68 -107.5 -147t-33.5 -128q0 -53 35 -70.5t82 -17.5t88 5t70 16l10 -45q-45 -23 -96.5 -35.5t-100.5 -12.5q-90 0 -134 39t-44 99z" />
<glyph unicode="&#x2dc;" horiz-adv-x="968" d="M193 1212q20 53 60 91t93 38q33 0 71 -12t75.5 -26.5t72.5 -26.5t62 -12l106 79l37 -28q-18 -53 -56 -91t-91 -38q-37 0 -75 12t-75 27.5t-70.5 28t-60.5 12.5l-111 -82z" />
<glyph unicode="&#x2dd;" horiz-adv-x="968" d="M279 1147l219 311l82 -67l-252 -279zM492 1147l219 311l80 -67l-252 -279z" />
<glyph unicode="&#x3a9;" horiz-adv-x="1353" d="M84 0v76h258l2 2q-74 43 -117 113.5t-66.5 157.5t-30.5 183.5t-7 188.5q0 133 28.5 259t94 223t172 155.5t264.5 58.5q164 0 270.5 -59.5t168 -156.5t86 -222t24.5 -256q0 -98 -12.5 -193.5t-41 -180.5t-74.5 -155.5t-116 -115.5h2q16 0 32.5 -1t33.5 -1h213v-76h-453v82 q94 27 155.5 88t98.5 146t51.5 188.5t14.5 216.5q0 104 -17.5 213.5t-67 200t-137.5 147.5t-231 57q-133 0 -222 -51t-142.5 -136t-77 -195.5t-23.5 -231.5t12.5 -226.5t46 -189.5t94 -142t154.5 -83v-84h-440z" />
<glyph unicode="&#x3c0;" horiz-adv-x="1138" d="M35 922v75h1050v-75h-165v-844h149v-55q-35 -16 -74 -23.5t-67 -7.5q-47 0 -69.5 20.5t-22.5 81.5v828h-555v-922h-86v922h-160z" />
<glyph unicode="&#x401;" horiz-adv-x="1085" d="M82 0v76h135v1245h-127v76h899v-256h-78v180h-602v-547q20 0 65.5 1t104 3t123 3t122.5 2t103 2t66 1v-92l-584 8v-626h633v182h82v-258h-942zM342 1565q0 29 20.5 48t47.5 19q31 0 51 -18.5t20 -48.5q0 -29 -20 -47.5t-49 -18.5t-49.5 18.5t-20.5 47.5zM692 1565 q0 29 18.5 48t45.5 19q31 0 52 -18.5t21 -48.5q0 -29 -21 -47.5t-52 -18.5q-29 0 -46.5 18.5t-17.5 47.5z" />
<glyph unicode="&#x402;" horiz-adv-x="1449" d="M49 1118v279h1114v-279h-80v203h-493v-557q94 41 195.5 63.5t185.5 22.5q106 0 181 -33t122 -88t69.5 -128t22.5 -152q0 -115 -31.5 -211.5t-83 -175t-117 -140t-135.5 -106.5l-34 51q66 47 123 107.5t99 132t65.5 153.5t23.5 172q0 170 -84 254t-244 84 q-82 0 -177 -22.5t-181 -59.5v-612h153v-76h-391v76h148v1245h-373v-203h-78z" />
<glyph unicode="&#x403;" horiz-adv-x="1021" d="M82 0v76h135v1245h-127v76h899v-256h-78v180h-602v-1245h201v-76h-428zM498 1511l219 312l82 -66l-252 -278z" />
<glyph unicode="&#x404;" horiz-adv-x="1107" d="M102 688q0 111 25 238t87 236.5t173 182t283 72.5q113 0 203 -15.5t145 -37.5v-281h-78v222q-49 14 -123 24t-143 10q-117 0 -203 -41t-144.5 -114.5t-90 -178t-39.5 -233.5q147 4 294.5 7t294.5 7v-94l-591 8v-16q0 -119 17 -230.5t69.5 -197.5t145.5 -138t247 -52 q29 0 69.5 2t87 8t94.5 15t91 22l20 -70q-33 -12 -79 -22.5t-96 -18.5t-101 -12t-96 -4q-154 0 -260.5 49t-173 140t-97.5 221t-31 292z" />
<glyph unicode="&#x405;" horiz-adv-x="1040" d="M72 88v240h78v-185q86 -41 166.5 -58t166.5 -17q186 0 290 67.5t104 239.5q0 74 -27 124t-73 83.5t-109.5 55t-137.5 42.5q-86 23 -165.5 48.5t-139 65.5t-95.5 99t-36 149q0 92 33 163t91 118t137 71.5t169 24.5q72 0 167 -13t181 -56v-258h-79v204q-66 25 -137.5 34 t-141.5 9q-141 0 -234.5 -73.5t-93.5 -225.5q0 -68 31 -112.5t81 -75.5t111.5 -50.5t122.5 -35.5q78 -20 156 -44t140.5 -66t101.5 -109.5t39 -173.5q0 -104 -38 -178t-103.5 -120t-152.5 -67.5t-183 -21.5q-109 0 -218.5 23.5t-201.5 78.5z" />
<glyph unicode="&#x406;" horiz-adv-x="632" d="M143 0v76h125v1245h-125v78h346v-78h-129v-1245h129v-76h-346z" />
<glyph unicode="&#x407;" horiz-adv-x="632" d="M74 1565q0 29 20.5 48t46.5 19q31 0 51.5 -18.5t20.5 -48.5q0 -29 -20.5 -47.5t-49.5 -18.5t-49 18.5t-20 47.5zM143 0v76h125v1245h-125v78h346v-78h-129v-1245h129v-76h-346zM424 1565q0 29 18.5 48t44.5 19q31 0 52.5 -18.5t21.5 -48.5q0 -29 -21.5 -47.5t-52.5 -18.5 q-29 0 -46 18.5t-17 47.5z" />
<glyph unicode="&#x408;" horiz-adv-x="643" d="M-47 -295q86 49 149.5 98.5t104.5 108.5t60.5 132t19.5 169l2 1108h-170v78h418v-78h-156l-2 -1088q0 -123 -26.5 -214t-77 -161.5t-125 -122.5t-168.5 -97z" />
<glyph unicode="&#x409;" horiz-adv-x="1865" d="M20 29q119 45 189 133t105.5 221t45 313.5t9.5 407.5v217h-160v78h936v-78h-148v-520h375q117 0 197 -37t128 -95.5t69.5 -130t21.5 -139.5q0 -100 -32 -174.5t-85 -125t-125.5 -75t-154.5 -24.5h-621v76h135v1245h-450v-211q0 -221 -11.5 -416.5t-53.5 -348t-126 -253 t-227 -133.5zM997 76h394q63 0 119.5 20.5t98.5 60.5t65.5 100t23.5 140q0 90 -30 152.5t-77 100.5t-106.5 55.5t-116.5 17.5h-371v-647z" />
<glyph unicode="&#x40a;" horiz-adv-x="1875" d="M82 0v76h127v1245h-127v76h350v-76h-131v-524h612v524h-141v78h381v-78h-147v-520h376q117 0 197 -37t128 -95.5t69.5 -130t21.5 -139.5q0 -100 -31.5 -174.5t-85 -125t-126 -75t-154.5 -24.5h-621v76h133v645h-612v-645h131v-76h-350zM1006 76h395q63 0 119.5 20.5 t98.5 60.5t65.5 100t23.5 140q0 90 -29.5 152.5t-77 100.5t-106.5 55.5t-117 17.5h-372v-647z" />
<glyph unicode="&#x40b;" horiz-adv-x="1566" d="M53 1118v279h1118v-279h-81v203h-492v-565q104 47 214 69.5t187 22.5q92 0 159 -23.5t111 -63.5t65.5 -95.5t21.5 -118.5l2 -471h129v-76h-348v76h127v436q0 133 -72 194.5t-217 61.5q-43 0 -93 -8t-101.5 -20.5t-98.5 -30t-86 -35.5v-598h145v-76h-378v76h143v1245h-377 v-203h-78z" />
<glyph unicode="&#x40c;" horiz-adv-x="1165" d="M82 0v76h127v1247h-127v76h348v-76h-131v-1247h131v-76h-348zM373 723v29l473 598q27 35 50.5 49t53.5 12q66 0 131 -31l-6 -55l-162 -18l-452 -566l512 -657l172 -18v-58q-33 -12 -70 -18t-67 -6q-35 0 -60.5 12t-50.5 41zM537 1516l219 311l82 -66l-252 -278z" />
<glyph unicode="&#x40e;" horiz-adv-x="1110" d="M14 1321v78h340v-78h-135l215 -565l131 -355h8l121 347l205 573h-139v78h334v-78h-107l-403 -1128q-37 -104 -90.5 -152.5t-135.5 -48.5q-20 0 -66 3t-134 28l18 71q45 -10 86 -17t76 -7q59 0 98 32.5t70 118.5l43 113h-43l-381 987h-111zM254 1683l70 46 q49 -72 110.5 -118t124.5 -46q23 0 50.5 6t62.5 22.5t75.5 46t90.5 76.5l36 -30q-84 -113 -165.5 -159t-155.5 -46q-49 0 -92 17.5t-80 46t-68.5 64.5t-58.5 74z" />
<glyph unicode="&#x40f;" horiz-adv-x="1337" d="M82 0v76h127v1245h-127v76h350v-76h-131v-1245h731v1245h-129v76h352v-76h-129v-1245h129v-76h-544v-332h-82v332h-547z" />
<glyph unicode="&#x410;" horiz-adv-x="1286" d="M41 0v76h119q20 63 54 167.5t74 231.5t85 263t85 262t73.5 230.5t54.5 168.5h119l428 -1323h114v-76h-362v76h149l-98 317h-584l-98 -317h156v-76h-369zM381 475h528l-198 625l-64 209h-4l-65 -209q-8 -25 -31 -96.5t-52.5 -162.5t-60.5 -189.5t-53 -176.5z" />
<glyph unicode="&#x411;" horiz-adv-x="1179" d="M84 1321v76h864v-256h-78v180h-561v-520h377q119 0 200 -35t128 -91.5t67.5 -126t20.5 -136.5q0 -100 -31 -177t-85 -129.5t-127 -79t-154 -26.5h-613v76h125v1245h-133zM309 76h398q63 0 119.5 21.5t97.5 64.5t64.5 105.5t23.5 142.5q0 90 -29 150.5t-75 96t-105.5 51 t-120.5 15.5h-373v-647z" />
<glyph unicode="&#x412;" horiz-adv-x="1185" d="M82 0v76h139v1245h-131v76h572q100 0 174.5 -25.5t124 -72t74 -111t24.5 -139.5q0 -37 -8.5 -81t-31 -87t-63.5 -83t-104 -67q70 -20 118 -59t77.5 -89.5t43 -104.5t13.5 -105q0 -84 -30 -152.5t-81 -118t-117.5 -76t-140.5 -26.5h-653zM313 76h387q86 0 145.5 25.5 t96.5 68.5t54.5 98.5t17.5 114.5q0 57 -21.5 112.5t-62.5 97.5t-99.5 67.5t-132.5 25.5h-385v-610zM313 764h349q143 0 225 77t82 199q0 59 -18.5 110.5t-56.5 89.5t-98.5 59.5t-144.5 21.5h-338v-557z" />
<glyph unicode="&#x413;" horiz-adv-x="1021" d="M82 0v76h135v1245h-127v76h899v-256h-78v180h-602v-1245h201v-76h-428z" />
<glyph unicode="&#x414;" horiz-adv-x="1333" d="M45 76h92q80 57 132.5 173t82 265.5t42 318t12.5 334.5v154h-138v76h963v-76h-129v-1245h123v-402h-78v326h-1024v-326h-78v402zM252 76h758v1245h-523v-156q0 -180 -11 -343t-37.5 -302t-71.5 -251.5t-115 -192.5z" />
<glyph unicode="&#x415;" horiz-adv-x="1085" d="M82 0v76h135v1245h-127v76h899v-256h-78v180h-602v-547q20 0 65.5 1t104 3t123 3t122.5 2t103 2t66 1v-92l-584 8v-626h633v182h82v-258h-942z" />
<glyph unicode="&#x416;" horiz-adv-x="1736" d="M23 8v58l172 18l473 643l-447 580l-160 18l-6 55q33 14 68 23.5t67 9.5q31 0 52.5 -12t42.5 -39l481 -623v-26l-494 -672q-25 -35 -52 -47t-62 -10q-29 0 -66 6t-69 18zM698 0v76h125v1247h-125v76h346v-76h-129v-1247h129v-76h-346zM973 715v26l473 613q23 29 45 44 t53 13q31 0 67 -8t68 -23l-6 -55l-157 -18l-449 -576l477 -647l172 -18v-58q-35 -12 -70.5 -18t-66.5 -6q-39 -2 -63.5 9t-49.5 46z" />
<glyph unicode="&#x417;" horiz-adv-x="1097" d="M57 66q6 16 12.5 34.5t14.5 34.5q113 -35 211 -49t158 -14q209 0 328.5 90t119.5 260q0 147 -109.5 229t-293.5 82h-164v76h164q174 0 269 79t95 208q0 123 -96 183t-256 60q-72 0 -163 -17t-163 -52v-213h-78v268q72 41 183.5 66.5t230.5 25.5q203 0 320.5 -81 t117.5 -238q0 -109 -67.5 -196t-183.5 -122q59 -18 111 -48t92 -75t62.5 -103t22.5 -132q0 -106 -42 -186t-112.5 -134.5t-163.5 -82t-196 -27.5q-121 0 -229.5 18.5t-194.5 55.5z" />
<glyph unicode="&#x418;" horiz-adv-x="1378" d="M80 0v76h137v1245h-133v76h369v-76h-146v-1038h6l764 962v76h-162v76h388v-76h-140v-1245h140v-76h-373v76h145v1044h-6l-762 -964v-80h142v-76h-369z" />
<glyph unicode="&#x419;" horiz-adv-x="1378" d="M80 0v76h137v1245h-133v76h369v-76h-146v-1038h6l764 962v76h-162v76h388v-76h-140v-1245h140v-76h-373v76h145v1044h-6l-762 -964v-80h142v-76h-369zM424 1800l68 43q47 -70 107 -115t124 -45q43 0 109.5 28t158.5 120l39 -29q-84 -111 -162.5 -154.5t-150.5 -43.5 q-47 0 -89 16t-79 44t-67.5 63.5t-57.5 72.5z" />
<glyph unicode="&#x41a;" horiz-adv-x="1165" d="M82 0v76h127v1247h-127v76h348v-76h-131v-1247h131v-76h-348zM373 723v29l473 598q27 35 50.5 49t53.5 12q66 0 131 -31l-6 -55l-162 -18l-452 -566l512 -657l172 -18v-58q-33 -12 -70 -18t-67 -6q-35 0 -60.5 12t-50.5 41z" />
<glyph unicode="&#x41b;" horiz-adv-x="1288" d="M20 29q119 45 189 133t105.5 221t45 313.5t9.5 407.5v217h-160v78h985v-78h-129v-1243h129v-78h-350v78h127v1243h-516v-211q0 -221 -11.5 -416.5t-53.5 -348t-126 -253t-227 -133.5z" />
<glyph unicode="&#x41c;" horiz-adv-x="1671" d="M82 0v76h125v1245h-125v78h229l414 -926l106 -246h11l108 248l412 924h227v-78h-127v-1245h127v-76h-350v76h133v1141h-6l-94 -216l-391 -872h-93l-405 897l-84 195h-6l2 -1145h135v-76h-348z" />
<glyph unicode="&#x41d;" horiz-adv-x="1337" d="M82 0v78h127v1243h-127v78h350v-78h-131v-543h731v543h-129v78h352v-78h-129v-1243h129v-78h-352v78h129v620h-731v-620h131v-78h-350z" />
<glyph unicode="&#x41e;" horiz-adv-x="1310" d="M102 686q0 143 28 275.5t93.5 233.5t174 162.5t270.5 61.5q164 0 268 -61.5t164.5 -162.5t84 -232.5t23.5 -270.5q0 -152 -33.5 -279.5t-101 -223t-169 -149.5t-236.5 -54q-158 0 -265.5 48t-174 139t-96.5 220t-30 293zM197 682q0 -305 110.5 -463t356.5 -158 q115 0 199.5 49.5t140 134.5t83 198.5t27.5 242.5q0 106 -16.5 223t-63.5 212.5t-135 157.5t-231 62t-234.5 -56t-143.5 -149.5t-72.5 -212t-20.5 -241.5z" />
<glyph unicode="&#x41f;" horiz-adv-x="1337" d="M82 0v78h127v1241h-127v80h1173v-80h-129v-1241h129v-78h-352v78h129v1241h-731v-1241h131v-78h-350z" />
<glyph unicode="&#x420;" horiz-adv-x="1089" d="M82 0v76h129v1245h-129v78h545q82 0 155.5 -23.5t129 -72t88 -122t32.5 -173.5q0 -59 -16.5 -131t-60.5 -133.5t-119.5 -103.5t-194.5 -42h-338v-522h172v-76h-393zM303 674h336q55 0 108.5 15.5t96.5 53t69.5 100t26.5 158.5q0 80 -24.5 140.5t-65.5 100.5t-97.5 59.5 t-119.5 19.5h-330v-647z" />
<glyph unicode="&#x421;" horiz-adv-x="1107" d="M102 690q0 109 25 237t88.5 237.5t174 182t282.5 72.5q113 0 202 -16.5t146 -38.5v-281h-80v222q-47 14 -121 24t-143 10q-127 0 -217 -47t-148.5 -133t-86 -205.5t-27.5 -267.5q0 -121 17 -232.5t68.5 -197.5t145.5 -138t248 -52q29 0 69.5 2t87 8t94.5 15t91 22l20 -70 q-33 -12 -79 -22.5t-97 -18.5t-102 -12t-96 -4q-152 0 -258.5 49t-174 141t-98.5 222t-31 292z" />
<glyph unicode="&#x422;" horiz-adv-x="1046" d="M35 1118v281h977l2 -281h-82v203h-363v-1245h174v-76h-432v76h168v1245h-366v-203h-78z" />
<glyph unicode="&#x423;" horiz-adv-x="1110" d="M14 1321v78h340v-78h-135l215 -565l131 -355h8l121 347l205 573h-139v78h334v-78h-107l-403 -1128q-37 -104 -90.5 -152.5t-135.5 -48.5q-20 0 -66 3t-134 28l18 71q45 -10 86 -17t76 -7q59 0 98 32.5t70 118.5l43 113h-43l-381 987h-111z" />
<glyph unicode="&#x424;" horiz-adv-x="1556" d="M86 705q0 94 37 186t116.5 165.5t203.5 123t300 57.5v84h-139v76h373v-76h-141v-84q178 -6 298.5 -53t195.5 -121t107.5 -166t32.5 -186q0 -109 -44 -202t-125.5 -164t-199.5 -113t-265 -48v-106h141v-78h-373v78h139v106q-174 6 -297.5 45t-203.5 106.5t-118 161 t-38 208.5zM174 700q0 -215 147.5 -323.5t421.5 -120.5v907q-156 -8 -264 -49t-175.5 -104.5t-98.5 -143.5t-31 -166zM836 256q129 6 230 42t172 95.5t107.5 139.5t36.5 172q0 78 -26.5 156.5t-90 143t-169 108.5t-260.5 50v-907z" />
<glyph unicode="&#x425;" horiz-adv-x="1212" d="M37 0v78h125l393 647l-365 596h-118v78h366v-78h-151l321 -528l320 528h-160v78h381v-78h-123l-371 -602l394 -641h127v-78h-388v78h164l-350 575l-344 -575h174v-78h-395z" />
<glyph unicode="&#x426;" horiz-adv-x="1337" d="M80 0v76h127v1245h-127v76h350v-76h-129v-1245h729v1245h-127v76h352v-76h-131v-1245h129v-402h-82v326h-1091z" />
<glyph unicode="&#x427;" horiz-adv-x="1251" d="M49 1321v76h350v-76h-131v-418q0 -131 74 -192.5t219 -61.5q88 0 189.5 19.5t191.5 60.5v592h-129v76h352v-76h-133v-1245h133v-76h-350v76h127v573q-117 -45 -223.5 -63.5t-175.5 -18.5q-92 0 -161 23.5t-113 64.5t-66.5 96.5t-22.5 118.5v451h-131z" />
<glyph unicode="&#x428;" horiz-adv-x="1837" d="M82 0v76h127v1245h-127v76h350v-76h-131v-1245h573v1245h-126v76h352v-76h-131v-1245h561v1245h-127v76h352v-76h-131v-1245h131v-76h-1673z" />
<glyph unicode="&#x429;" horiz-adv-x="1837" d="M82 0v76h127v1245h-127v76h350v-76h-131v-1245h573v1245h-126v76h352v-76h-131v-1245h561v1245h-127v76h352v-76h-131v-1245h127v-402h-80v326h-1589z" />
<glyph unicode="&#x42a;" horiz-adv-x="1464" d="M35 1141v256h698v-76h-139v-520h377q117 0 196.5 -37t127.5 -95.5t69.5 -130t21.5 -139.5q0 -100 -31.5 -174.5t-84.5 -125t-126 -75t-155 -24.5h-620v76h133v1245h-389v-180h-78zM594 76h395q63 0 119.5 20.5t98.5 60.5t65.5 100t23.5 140q0 90 -29.5 152.5t-76.5 100.5 t-106.5 55.5t-116.5 17.5h-373v-647z" />
<glyph unicode="&#x42b;" horiz-adv-x="1634" d="M82 1321v78h381v-78h-148v-520h377q117 0 197 -37t128 -95.5t69.5 -130t21.5 -139.5q0 -100 -32 -174.5t-85 -125t-125.5 -75t-154.5 -24.5h-621v76h133v1245h-141zM315 76h396q63 0 119.5 20.5t98.5 60.5t65.5 100t23.5 140q0 90 -30 152.5t-77 100.5t-106.5 55.5 t-116.5 17.5h-373v-647zM1198 0v76h127v1245h-127v76h348v-76h-131v-1245h131v-76h-348z" />
<glyph unicode="&#x42c;" horiz-adv-x="1191" d="M88 1321v78h381v-78h-147v-520h372q117 0 197 -37t129 -95.5t70.5 -130t21.5 -139.5q0 -100 -31.5 -174.5t-86 -125t-127 -75t-154.5 -24.5h-619v76h135v1245h-141zM322 76h391q63 0 120.5 20.5t98.5 60.5t65.5 100t24.5 140q0 90 -29.5 152.5t-77 100.5t-106.5 55.5 t-119 17.5h-368v-647z" />
<glyph unicode="&#x42d;" horiz-adv-x="1105" d="M61 43l23 72q96 -31 189.5 -41.5t150.5 -10.5q150 0 247 57.5t152.5 148.5t78 205t22.5 226l-588 -8v94l588 -14q-4 129 -30 233.5t-79 178t-138 114.5t-206 41q-35 0 -75 -3t-77.5 -8t-71.5 -12t-59 -13v-222h-79v281q59 23 154 40t208 17q176 0 282.5 -64.5t165 -166 t78 -225t19.5 -244.5q0 -158 -33 -292t-103.5 -232.5t-181 -153.5t-266.5 -55q-104 0 -204.5 16t-166.5 41z" />
<glyph unicode="&#x42e;" horiz-adv-x="1777" d="M82 0v76h127v1245h-127v76h348v-76h-129v-543h309q8 129 38 245t93.5 203t164 139t249.5 52q164 0 265.5 -61.5t157.5 -162.5t75.5 -232.5t19.5 -270.5q0 -150 -30.5 -277.5t-94 -222t-161 -148.5t-232.5 -56q-158 0 -262.5 48t-167.5 138t-90 219t-27 293v12h-307v-620 h129v-76h-348zM702 680q0 -152 24 -267.5t77 -193.5t138 -118t208 -40q115 0 196.5 49.5t134 134.5t77 198.5t24.5 240.5q0 109 -13.5 224.5t-57.5 212t-128 158.5t-227 62t-231 -57t-137.5 -150.5t-67 -212t-17.5 -241.5z" />
<glyph unicode="&#x42f;" horiz-adv-x="1212" d="M33 10l2 51l137 15l274 571q-94 14 -151 52t-89 88.5t-43 106.5t-11 110q0 100 32.5 174.5t89 124t131 73t156.5 23.5h539v-78h-129v-1245h135v-76h-387v76h160v559h-347l-272 -576q-16 -35 -34.5 -54t-59.5 -19q-25 0 -62.5 6t-70.5 18zM242 1004q0 -94 30.5 -151.5 t76.5 -89.5t102.5 -42t109.5 -10h318v610h-324q-66 0 -122 -19.5t-99 -58.5t-67.5 -98.5t-24.5 -140.5z" />
<glyph unicode="&#x430;" horiz-adv-x="974" d="M68 264q0 70 26.5 123t72.5 89t110.5 54.5t138.5 22.5l282 14v92q0 74 -11 126.5t-37.5 84t-72 46t-112.5 14.5q-74 0 -153 -16.5t-156 -45.5l-25 66q86 37 176 56.5t176 19.5q145 0 223 -73t78 -249v-612h162l6 -53q-35 -16 -83 -22.5t-76 -6.5q-47 0 -71 19.5t-24 78.5 v27q-63 -49 -117.5 -76t-99.5 -39t-78.5 -14t-58.5 -2q-82 0 -135 26.5t-85 67.5t-44 90t-12 92zM160 272q0 -211 219 -211q152 0 319 144v293l-295 -15q-121 -6 -182 -62t-61 -149z" />
<glyph unicode="&#x431;" horiz-adv-x="964" d="M82 473q0 190 6 300t16 167q31 154 115 261.5t254 172.5q33 12 75 28.5t85 35t85 37t73 32.5l34 -69q-37 -20 -80 -40t-85 -37.5t-79.5 -31.5t-64.5 -24q-94 -33 -156.5 -82t-102.5 -114t-59.5 -145.5t-27.5 -177.5h4q41 92 129 148.5t199 56.5q113 0 186.5 -44 t116.5 -114.5t60.5 -160.5t17.5 -183q0 -88 -17.5 -178t-63.5 -162.5t-127 -118.5t-206 -46q-119 0 -194.5 45t-118.5 115.5t-58.5 157.5t-15.5 171zM172 471q0 -70 10.5 -142.5t43 -132t94 -97.5t163.5 -38q96 0 157.5 38t95.5 99.5t46.5 136t12.5 148.5q0 68 -11.5 143.5 t-43 140t-91 106.5t-157.5 42q-94 -2 -156 -43t-98.5 -104t-51 -142t-14.5 -155z" />
<glyph unicode="&#x432;" horiz-adv-x="935" d="M59 0v74h109v850h-100v73h454q160 0 239 -70.5t79 -181.5q0 -27 -6.5 -56.5t-21.5 -58t-43 -56t-71 -48.5q51 -18 85 -46.5t53.5 -62.5t27.5 -72t8 -71q0 -61 -23.5 -111t-63.5 -87t-93 -56.5t-110 -19.5h-523zM254 74h295q63 0 109.5 17.5t74 47t40.5 66.5t13 78 q0 39 -15 73.5t-46 62t-76 44t-102 16.5h-293v-405zM254 557h274q98 0 161 50t63 132q0 78 -56.5 131.5t-185.5 53.5h-256v-367z" />
<glyph unicode="&#x433;" horiz-adv-x="806" d="M66 0v74h106v850h-100v73h710v-231h-71v158h-457v-850h154v-74h-342z" />
<glyph unicode="&#x434;" horiz-adv-x="1058" d="M47 72h72q61 43 97 129t54.5 191.5t24.5 219t6 209.5v103h-127v73h711v-925h82v-338h-72v266h-776v-266h-72v338zM233 72h566v852h-414v-105q0 -96 -5 -204.5t-20.5 -211t-46 -189.5t-80.5 -142z" />
<glyph unicode="&#x435;" horiz-adv-x="929" d="M82 494q0 39 5 92t19.5 110.5t42 114.5t72.5 102t109.5 73t156.5 28q96 0 161 -29t106 -74t61.5 -100t29.5 -108.5t10 -97.5t1 -66v-60h-684q0 -82 12.5 -156.5t48 -133t96 -93.5t154.5 -35q92 0 162 17.5t156 58.5l26 -61q-84 -45 -162.5 -66.5t-175.5 -21.5 q-123 0 -202.5 40t-124.5 108.5t-62.5 160.5t-17.5 197zM174 555h596q0 84 -14.5 154.5t-47 121t-87 79t-134.5 28.5q-84 0 -141 -32t-93 -86t-54.5 -122.5t-24.5 -142.5z" />
<glyph unicode="&#x436;" horiz-adv-x="1376" d="M33 12v49l137 13l348 446l-334 406l-123 10l-6 51q23 12 51.5 18.5t51.5 6.5q27 0 46 -7.5t42 -35.5l360 -439v-22l-373 -477q-23 -29 -45 -37t-47 -8q-23 0 -54.5 7t-53.5 19zM504 0v72h141v850h-141v75h370v-75h-145v-850h150v-72h-375zM772 512v23l348 434 q23 29 44.5 36t45.5 7q23 0 51.5 -6.5t51.5 -18.5l-6 -51l-123 -10l-326 -402l350 -450l138 -13v-49q-23 -12 -54.5 -19t-54.5 -7q-25 0 -47.5 8t-44.5 37z" />
<glyph unicode="&#x437;" horiz-adv-x="866" d="M51 49l25 62q72 -25 147.5 -40.5t149.5 -15.5q145 0 233 57.5t88 184.5q0 59 -26.5 99t-67.5 63.5t-91 34t-99 10.5h-152v74h131q53 0 102.5 10t86 33.5t59 59.5t22.5 87q0 82 -62 126t-183 44q-66 0 -132.5 -11.5t-125.5 -33.5v-168h-72v215q33 16 74 30.5t85 24 t89 14.5t86 5q147 0 237 -60.5t90 -177.5q0 -43 -15 -81t-40.5 -67.5t-58.5 -50t-70 -28.5v-2q90 -20 152.5 -83t62.5 -167q0 -80 -31.5 -138.5t-87 -96t-127 -57t-151.5 -19.5q-41 0 -86 5t-89 13t-83 20.5t-70 24.5z" />
<glyph unicode="&#x438;" horiz-adv-x="1122" d="M41 924v71h235v-852h7l125 191l434 661h84v-919h149v-53q-35 -16 -73.5 -23.5t-67.5 -7.5q-47 0 -69.5 20.5t-22.5 79.5v766h-4q-35 -51 -68 -103.5t-68 -103.5q-12 -18 -45.5 -68.5t-76.5 -117t-92.5 -140t-92.5 -140t-75.5 -117t-45.5 -68.5h-79v924h-154z" />
<glyph unicode="&#x439;" horiz-adv-x="1122" d="M41 924v71h235v-852h7l125 191l434 661h84v-919h149v-53q-35 -16 -73.5 -23.5t-67.5 -7.5q-47 0 -69.5 20.5t-22.5 79.5v766h-4q-35 -51 -68 -103.5t-68 -103.5q-12 -18 -45.5 -68.5t-76.5 -117t-92.5 -140t-92.5 -140t-75.5 -117t-45.5 -68.5h-79v924h-154zM246 1313 l63 41q51 -72 113.5 -120t128.5 -48q23 0 51.5 5t63 21.5t75.5 47t90 79.5l37 -30q-86 -115 -166.5 -158t-156.5 -43q-47 0 -90 17.5t-80 46t-70 65.5t-59 76z" />
<glyph unicode="&#x43a;" horiz-adv-x="960" d="M39 924v73h258v-925h149v-72h-385v72h152v852h-174zM336 512v23l366 434q23 29 45.5 36t45.5 7q25 0 52 -6.5t50 -18.5l-4 -51l-123 -6l-346 -404l377 -454l131 -11v-49q-23 -12 -53.5 -19t-53.5 -7q-25 0 -47 8t-45 37z" />
<glyph unicode="&#x43b;" horiz-adv-x="1034" d="M29 45q86 33 136 97.5t75.5 157.5t32 215t6.5 271v138h-146v73h721v-923h119v-74h-322v74h119v850h-410v-129q0 -154 -8 -292t-39.5 -249t-94 -184.5t-169.5 -96.5z" />
<glyph unicode="&#x43c;" horiz-adv-x="1413" d="M43 924v71h244q86 -168 170 -338t170 -342l75 -151h3q16 39 34.5 77t36.5 76q12 25 38 77t57.5 118t66.5 138.5t67.5 140t58.5 122t40 82.5h229v-71h-141v-848h149v-27.5t2 -25.5q-35 -16 -73.5 -23.5t-67.5 -7.5q-47 0 -68.5 20.5t-23.5 79.5v742h-4 q-10 -27 -24.5 -52.5t-26.5 -54.5q-78 -162 -156 -321.5t-156 -321.5h-79q-82 164 -167 325.5t-165 327.5l-56 107h-2v-844h-79v924h-152z" />
<glyph unicode="&#x43d;" horiz-adv-x="1085" d="M33 924v73h231v-432h555v432h86v-921h150v-53q-35 -16 -74 -23.5t-68 -7.5q-47 0 -69.5 20.5t-22.5 79.5l-2 400h-557v-492h-82v924h-147z" />
<glyph unicode="&#x43e;" horiz-adv-x="964" d="M82 487q0 96 21.5 190.5t69.5 169.5t126 121t193 46q119 0 194.5 -46t119.5 -120t60.5 -167t16.5 -187q0 -92 -17.5 -182.5t-63.5 -163t-125 -117.5t-202 -45q-117 0 -192.5 42t-119.5 111.5t-62.5 160.5t-18.5 187zM172 485q0 -82 11.5 -157.5t46 -135t97 -95.5 t165.5 -36q94 0 153.5 39t93 100.5t45 137t11.5 149.5t-11.5 153t-44 145.5t-92 109.5t-155.5 43t-158 -41t-97.5 -105.5t-50 -145.5t-14.5 -161z" />
<glyph unicode="&#x43f;" horiz-adv-x="1138" d="M35 922v75h1050v-75h-165v-844h149v-55q-35 -16 -74 -23.5t-67 -7.5q-47 0 -69.5 20.5t-22.5 81.5v828h-555v-922h-86v922h-160z" />
<glyph unicode="&#x440;" horiz-adv-x="1021" d="M4 924v73h260v-110q63 53 147.5 88t172.5 35q100 0 168.5 -39t109.5 -105.5t59.5 -157t18.5 -190.5q0 -115 -20.5 -212t-66.5 -170t-120 -113.5t-178 -40.5q-61 0 -140 18t-151 63v-421h180v-72h-426v72h160v1282h-174zM264 145q20 -16 53 -31.5t72 -27.5t80 -19.5 t82 -7.5q63 0 117.5 23.5t94.5 79t63.5 143.5t23.5 217q0 115 -20.5 194t-57.5 127t-89 68.5t-118 20.5q-37 0 -80 -10.5t-84 -27.5t-77.5 -40t-59.5 -47v-662z" />
<glyph unicode="&#x441;" horiz-adv-x="872" d="M82 481q0 76 16.5 169t62.5 174t128 136.5t213 55.5q78 0 152.5 -15.5t129.5 -39.5v-232h-71v180q-57 16 -104.5 23.5t-100.5 7.5q-90 0 -153.5 -34t-104.5 -95t-59.5 -145t-18.5 -185q0 -86 14.5 -161.5t50 -134t95 -92.5t151.5 -34q86 0 155 18.5t153 53.5l24 -59 q-59 -35 -145 -59.5t-181 -24.5q-113 0 -190.5 36.5t-125.5 102.5t-69.5 156t-21.5 198z" />
<glyph unicode="&#x442;" horiz-adv-x="854" d="M41 784v213h770l2 -213h-74v140h-270v-850h135v-74h-348v74h131v850h-274v-140h-72z" />
<glyph unicode="&#x443;" horiz-adv-x="1017" d="M35 922v73h168l227 -696l72 -231h10l82 249q27 80 53.5 164t52 164t48 150.5t40.5 126.5h-139v73h330v-73h-107q-94 -293 -188 -581t-190 -579q-35 -102 -82 -153t-140 -51q-23 0 -71.5 4t-132.5 26q4 16 8 33t8 33q55 -10 94 -16.5t74 -6.5q27 0 50.5 5.5t44 20.5 t37.5 45t34 81l71 217h-45l-307 922h-102z" />
<glyph unicode="&#x444;" horiz-adv-x="1263" d="M82 485q0 109 28.5 202t90 163t159 110.5t232.5 47.5v370h-168v74h250v-444q137 -2 233.5 -39t157.5 -103.5t89 -157t28 -198.5q0 -104 -26 -196.5t-86 -163t-157.5 -113.5t-238.5 -51v-336h172v-72h-412v72h158v336q-145 6 -242.5 46t-157 105.5t-85 154.5t-25.5 193z M166 492q0 -92 19.5 -169t68.5 -134.5t131 -92.5t207 -39v875q-123 -6 -205 -41t-131 -93.5t-69.5 -136t-20.5 -169.5zM674 57q123 6 205 43t131 97.5t68.5 138.5t19.5 164q0 88 -18.5 165.5t-66.5 136t-130 92.5t-209 38v-875z" />
<glyph unicode="&#x445;" horiz-adv-x="935" d="M16 0v72h134l272 452l-242 398h-139v75h188l250 -411l199 336h-96v75h315v-75h-129l-246 -408l273 -442h129v-72h-316v72h90l-233 383l-225 -383h118v-72h-342z" />
<glyph unicode="&#x446;" horiz-adv-x="1091" d="M61 922v75h215v-921h558v846h-101v75h289v-75h-104v-846h112v-342h-76v266h-888v76h129v846h-134z" />
<glyph unicode="&#x447;" horiz-adv-x="1085" d="M25 924v73h241l2 -268q0 -59 5.5 -106.5t24.5 -80t59 -51t108 -18.5q78 0 170 22.5t170 77.5v424h86v-925h147l2 -54q-35 -16 -73.5 -23t-67.5 -7q-47 0 -69.5 20.5t-22.5 79.5l-2 410q-88 -59 -182.5 -80t-165.5 -21q-102 0 -158.5 30t-82.5 75t-30 99t-4 101v222h-157z " />
<glyph unicode="&#x448;" horiz-adv-x="1486" d="M61 922v75h215v-921h431v846h-99v75h287v-75h-104v-846h432v846h-99v75h295v-75h-112v-846h118v-76h-1359v76h129v846h-134z" />
<glyph unicode="&#x449;" horiz-adv-x="1480" d="M61 922v75h215v-921h431v846h-99v75h287v-75h-104v-846h432v846h-99v75h289v-75h-106v-846h112v-342h-73v266h-1280v76h129v846h-134z" />
<glyph unicode="&#x44a;" horiz-adv-x="1159" d="M31 766v231h448v-415h297q94 0 156.5 -28t99.5 -70t51.5 -93t14.5 -100q0 -72 -24.5 -126t-65.5 -91t-98.5 -55.5t-121.5 -18.5h-391v924h-295v-158h-71zM479 74h309q98 0 163 53t65 162q0 61 -20.5 102t-54.5 66.5t-78 37t-93 11.5h-291v-432z" />
<glyph unicode="&#x44b;" horiz-adv-x="1343" d="M39 924v73h244v-415h295q94 0 156.5 -28t99 -70t52 -93t15.5 -100q0 -72 -24.5 -126t-66.5 -91t-98.5 -55.5t-121.5 -18.5h-389v924h-162zM283 74h309q98 0 161.5 53t63.5 162q0 61 -20.5 102t-54 66.5t-77.5 37t-92 11.5h-290v-432zM930 924v73h207v-919h149l2 -55 q-35 -16 -74.5 -23.5t-66.5 -7.5q-47 0 -69.5 20.5t-24.5 81.5v830h-123z" />
<glyph unicode="&#x44c;" horiz-adv-x="962" d="M39 924v73h244v-415h295q94 0 156.5 -28t99 -70t52 -93t15.5 -100q0 -72 -24.5 -126t-66.5 -91t-98.5 -55.5t-121.5 -18.5h-389v924h-162zM283 74h309q98 0 161.5 53t63.5 162q0 61 -20.5 102t-54 66.5t-77.5 37t-92 11.5h-290v-432z" />
<glyph unicode="&#x44d;" horiz-adv-x="907" d="M61 70l27 59q84 -35 147.5 -52.5t147.5 -17.5q86 0 149.5 34t104.5 92.5t62.5 136t23.5 163.5l-447 -4v78l445 -8q-4 86 -24.5 156.5t-59.5 123t-98.5 81t-139.5 28.5q-53 0 -104 -7t-109 -24v-180h-71v232q55 25 132 40t156 15q127 0 207 -48t124 -122t60.5 -162 t16.5 -168q0 -106 -24.5 -202.5t-78 -168t-135 -114.5t-194.5 -43q-96 0 -177 23.5t-141 58.5z" />
<glyph unicode="&#x44e;" horiz-adv-x="1357" d="M41 924v71h240v-430h206q6 86 32 167t73 142.5t119 99.5t174 38q115 0 188.5 -46t116.5 -121t60.5 -168t17.5 -185q0 -90 -17.5 -180.5t-62.5 -162t-123 -117.5t-197 -46q-102 0 -171.5 34.5t-114.5 92t-66.5 133.5t-28.5 157q-2 20 -3 41t-1 43h-202v-487h-82v924h-158z M573 485q0 -80 10.5 -155.5t43 -136t94 -96.5t164.5 -36q92 0 149.5 40t90 102.5t44 137t11.5 146.5t-11.5 151t-43 145.5t-89 110.5t-151.5 44q-92 0 -152.5 -41t-96.5 -106.5t-49.5 -145.5t-13.5 -160z" />
<glyph unicode="&#x44f;" horiz-adv-x="991" d="M25 4l2 57l118 11l203 377q-70 12 -114 38.5t-69.5 63.5t-35.5 78t-10 82q0 72 24.5 126t66.5 90t98.5 53t119.5 17h455v-75h-101v-846h148v-53q-35 -16 -73 -23.5t-64 -7.5q-47 0 -70 20.5t-25 79.5v350h-264q-16 -29 -45 -84t-60.5 -115.5t-61 -116.5t-44.5 -83 q-12 -23 -31.5 -40t-54.5 -17q-25 0 -55.5 5t-56.5 13zM203 713q0 -61 22.5 -100.5t56 -61t75.5 -29.5t81 -8h260v410h-278q-88 0 -152.5 -51.5t-64.5 -159.5z" />
<glyph unicode="&#x451;" horiz-adv-x="929" d="M82 494q0 39 5 92t19.5 110.5t42 114.5t72.5 102t109.5 73t156.5 28q96 0 161 -29t106 -74t61.5 -100t29.5 -108.5t10 -97.5t1 -66v-60h-684q0 -82 12.5 -156.5t48 -133t96 -93.5t154.5 -35q92 0 162 17.5t156 58.5l26 -61q-84 -45 -162.5 -66.5t-175.5 -21.5 q-123 0 -202.5 40t-124.5 108.5t-62.5 160.5t-17.5 197zM174 555h596q0 84 -14.5 154.5t-47 121t-87 79t-134.5 28.5q-84 0 -141 -32t-93 -86t-54.5 -122.5t-24.5 -142.5zM272 1251q0 29 20.5 48.5t45.5 19.5q33 0 52.5 -19.5t19.5 -48.5t-19.5 -47t-50.5 -18 q-29 0 -48.5 18.5t-19.5 46.5zM604 1251q0 29 19.5 48.5t44.5 19.5q33 0 53 -19.5t20 -48.5t-20 -47t-53 -18q-27 0 -45.5 18.5t-18.5 46.5z" />
<glyph unicode="&#x452;" horiz-adv-x="1013" d="M-4 1378v74h258v-254h475v-68h-475v-260q193 84 336 84q80 0 142.5 -28.5t105.5 -90t65.5 -158.5t22.5 -235q0 -102 -19.5 -190t-67.5 -153.5t-128 -102.5t-201 -37v68q82 6 143.5 27.5t103.5 68.5t63.5 126t21.5 200q0 125 -18.5 207.5t-54.5 132t-86 70t-112 20.5 q-72 0 -159.5 -26t-157.5 -58v-795h-86v1130h-131v68h131v180h-172z" />
<glyph unicode="&#x453;" horiz-adv-x="806" d="M66 0v74h106v850h-100v73h710v-231h-71v158h-457v-850h154v-74h-342zM324 1147l219 311l82 -67l-252 -279z" />
<glyph unicode="&#x454;" horiz-adv-x="872" d="M82 481q0 76 16.5 168t62.5 173t128 136.5t213 55.5q78 0 152.5 -14.5t129.5 -38.5v-232h-73v178q-57 18 -104.5 25.5t-100.5 7.5q-82 0 -142.5 -28.5t-101.5 -81t-62.5 -126t-27.5 -161.5l436 8v-78l-438 6v-8q0 -84 15.5 -158.5t51 -131t96 -89.5t150.5 -33 q84 0 153 17.5t152 52.5l27 -59q-59 -35 -145 -57.5t-183 -22.5q-113 0 -190.5 35.5t-124.5 101.5t-68.5 156t-21.5 198z" />
<glyph unicode="&#x455;" horiz-adv-x="817" d="M66 272h71l4 -163q53 -27 119 -38.5t119 -11.5q57 0 108.5 10.5t90 34t60 61.5t21.5 95q0 47 -20.5 81t-55 58.5t-79.5 41t-92 30.5q-61 18 -120 38.5t-105 51.5t-73.5 77t-27.5 114q0 72 26.5 122t71.5 80.5t104.5 45t123.5 14.5q57 0 129.5 -14.5t136.5 -49.5l2 -221 h-72l-4 174q-41 16 -94 26.5t-100 10.5q-51 0 -94.5 -10t-75 -33t-50 -58.5t-18.5 -88.5q0 -45 24.5 -77t60.5 -53.5t77 -36t76 -24.5q61 -18 121.5 -38.5t107.5 -53.5t75.5 -82t28.5 -125q0 -74 -29.5 -125t-79.5 -84t-114.5 -48t-134.5 -15q-86 0 -172 17.5t-143 57.5z " />
<glyph unicode="&#x456;" horiz-adv-x="530" d="M104 924v73h209v-919h156v-55q-35 -16 -77 -23.5t-70 -7.5q-47 0 -70 20.5t-25 81.5v830h-123zM195 1243q0 29 20.5 49.5t46.5 20.5q29 0 49.5 -20.5t20.5 -49.5q0 -27 -20.5 -47t-49.5 -20q-27 0 -47 20t-20 47z" />
<glyph unicode="&#x457;" horiz-adv-x="530" d="M10 1237q0 29 20.5 48.5t45.5 19.5q33 0 52 -19.5t19 -48.5t-19 -47.5t-50 -18.5q-29 0 -48.5 18.5t-19.5 47.5zM104 924v73h209v-919h148l2 -55q-35 -16 -74 -23.5t-67 -7.5q-47 0 -70 20.5t-25 81.5v830h-123zM342 1237q0 29 19.5 48.5t44.5 19.5q33 0 53 -19.5 t20 -48.5t-20 -47.5t-53 -18.5q-27 0 -45.5 18.5t-18.5 47.5z" />
<glyph unicode="&#x458;" horiz-adv-x="493" d="M-16 -377q72 39 117.5 76t72.5 78t37 88t10 108v951h-151v73h235v-997q0 -86 -12 -150.5t-46 -115.5t-91.5 -91t-145.5 -79zM186 1243q0 29 20.5 49.5t47.5 20.5q29 0 49.5 -20.5t20.5 -49.5q0 -27 -20.5 -47t-49.5 -20q-27 0 -47.5 20t-20.5 47z" />
<glyph unicode="&#x459;" horiz-adv-x="1474" d="M29 45q86 33 136 97.5t75.5 157.5t32 215t6.5 271v138h-146v73h662v-415h295q94 0 156.5 -28t99 -70t52 -93t15.5 -100q0 -72 -24.5 -126t-66.5 -91t-98.5 -55.5t-121.5 -18.5h-389v924h-353v-129q0 -154 -8 -292t-39.5 -249t-94 -184.5t-169.5 -96.5zM795 74h309 q98 0 162.5 53t64.5 162q0 61 -20.5 102t-54 66.5t-78.5 37t-93 11.5h-290v-432z" />
<glyph unicode="&#x45a;" horiz-adv-x="1495" d="M45 924v73h221v-415h467v342h-162v73h244v-415h295q94 0 156.5 -28t99.5 -70t52.5 -93t15.5 -100q0 -72 -25 -126t-67 -91t-98 -55.5t-122 -18.5h-389v506h-467v-506h-82v924h-139zM815 74h309q98 0 162 53t64 162q0 61 -20.5 102t-54.5 66.5t-78 37t-91 11.5h-291v-432z " />
<glyph unicode="&#x45b;" horiz-adv-x="1095" d="M16 1378v74h250v-254h469v-63h-469v-275q98 55 196.5 85t172.5 30q100 0 155.5 -30t81 -75t30.5 -98t5 -100v-594h148l2 -55q-35 -16 -74 -23.5t-68 -7.5q-47 0 -69.5 20.5t-24.5 81.5v547q0 57 -5 105.5t-25.5 81t-60.5 51t-107 18.5q-41 0 -88.5 -10t-94.5 -25.5 t-92 -36t-82 -41.5v-784h-86v1135h-129v63h129v180h-164z" />
<glyph unicode="&#x45c;" horiz-adv-x="960" d="M39 924v73h258v-925h149v-72h-385v72h152v852h-174zM336 512v23l366 434q23 29 45.5 36t45.5 7q25 0 52 -6.5t50 -18.5l-4 -51l-123 -6l-346 -404l377 -454l131 -11v-49q-23 -12 -53.5 -19t-53.5 -7q-25 0 -47 8t-45 37zM377 1147l219 311l82 -67l-252 -279z" />
<glyph unicode="&#x45e;" horiz-adv-x="1017" d="M35 922v73h168l227 -696l72 -231h10l82 249q27 80 53.5 164t52 164t48 150.5t40.5 126.5h-139v73h330v-73h-107q-94 -293 -188 -581t-190 -579q-35 -102 -82 -153t-140 -51q-23 0 -71.5 4t-132.5 26l16 66q55 -10 94 -16.5t74 -6.5q27 0 50.5 5.5t44 20.5t37.5 45t34 81 l71 217h-45l-307 922h-102zM227 1352l68 43q47 -70 107.5 -115t123.5 -45q43 0 109.5 27.5t159.5 119.5l39 -28q-84 -111 -163 -155t-151 -44q-47 0 -89 16.5t-79 44t-67.5 63.5t-57.5 73z" />
<glyph unicode="&#x45f;" horiz-adv-x="1091" d="M61 924v73h215v-923h558v850h-101v73h287v-73h-102v-850h110v-74h-436v-279h-78v279h-448v74h129v850h-134z" />
<glyph unicode="&#x490;" horiz-adv-x="1021" d="M82 0v76h135v1245h-127v76h821v260h78v-336h-680v-1245h201v-76h-428z" />
<glyph unicode="&#x491;" horiz-adv-x="806" d="M66 0v72h106v852h-100v73h639v203h71v-276h-528v-852h154v-72h-342z" />
<glyph unicode="&#x4d9;" horiz-adv-x="929" d="M90 461v61h684q0 82 -12 157t-48 132t-96.5 92t-154.5 35q-92 0 -162 -17.5t-156 -56.5l-26 62q84 45 162.5 66.5t175.5 21.5q123 0 202.5 -40t124.5 -108.5t62.5 -161t17.5 -196.5q0 -39 -5 -92.5t-19.5 -110.5t-42 -114.5t-72.5 -102.5t-110.5 -72.5t-155.5 -27.5 q-96 0 -161 28.5t-105.5 73.5t-61 100.5t-30 107.5t-10.5 96t-1 67zM176 446q0 -84 14.5 -154.5t47 -121.5t87 -79t134.5 -28q84 0 141 32t93 86.5t54.5 123t24.5 141.5h-596z" />
<glyph unicode="&#x2000;" horiz-adv-x="935" />
<glyph unicode="&#x2001;" horiz-adv-x="1870" />
<glyph unicode="&#x2002;" horiz-adv-x="935" />
<glyph unicode="&#x2003;" horiz-adv-x="1870" />
<glyph unicode="&#x2004;" horiz-adv-x="623" />
<glyph unicode="&#x2005;" horiz-adv-x="467" />
<glyph unicode="&#x2006;" horiz-adv-x="311" />
<glyph unicode="&#x2007;" horiz-adv-x="311" />
<glyph unicode="&#x2008;" horiz-adv-x="233" />
<glyph unicode="&#x2009;" horiz-adv-x="374" />
<glyph unicode="&#x200a;" horiz-adv-x="103" />
<glyph unicode="&#x2010;" horiz-adv-x="696" d="M104 483v86h488v-86h-488z" />
<glyph unicode="&#x2011;" horiz-adv-x="696" d="M104 483v86h488v-86h-488z" />
<glyph unicode="&#x2012;" horiz-adv-x="696" d="M104 483v86h488v-86h-488z" />
<glyph unicode="&#x2013;" horiz-adv-x="1024" d="M53 479v82h924v-82h-924z" />
<glyph unicode="&#x2014;" horiz-adv-x="2048" d="M53 479v82h1932v-82h-1932z" />
<glyph unicode="&#x2018;" horiz-adv-x="393" d="M119 1194q0 31 10 66.5t30.5 69.5t48.5 64.5t62 51.5l23 -29q-66 -74 -72 -168q27 -6 43.5 -26t16.5 -49q0 -31 -21.5 -54.5t-54.5 -23.5q-35 0 -60.5 25.5t-25.5 72.5z" />
<glyph unicode="&#x2019;" horiz-adv-x="393" d="M121 1126q66 74 72 168q-27 6 -43.5 26.5t-16.5 49.5q0 31 21.5 54.5t54.5 23.5q35 0 60.5 -25.5t25.5 -72.5q0 -31 -10.5 -67t-31 -69.5t-48 -64.5t-62.5 -51z" />
<glyph unicode="&#x201a;" horiz-adv-x="323" d="M70 -168q66 72 71 156q-27 6 -43 25t-16 48q0 31 21.5 53.5t54.5 22.5q35 0 59.5 -24.5t24.5 -69.5q0 -61 -41 -130t-107 -110z" />
<glyph unicode="&#x201c;" horiz-adv-x="581" d="M119 1194q0 31 10 66.5t30.5 69.5t48.5 64.5t62 51.5l23 -29q-66 -74 -72 -168q27 -6 43.5 -26t16.5 -49q0 -31 -21.5 -54.5t-54.5 -23.5q-35 0 -60.5 25.5t-25.5 72.5zM324 1194q0 31 10 66.5t29.5 69.5t47 64.5t62.5 51.5l25 -29q-68 -74 -72 -168q57 -14 57 -75 q0 -31 -21.5 -54.5t-53.5 -23.5q-35 0 -59.5 25.5t-24.5 72.5z" />
<glyph unicode="&#x201d;" horiz-adv-x="581" d="M121 1126q68 74 72 168q-58 15 -58 76q0 31 21.5 54.5t54.5 23.5q35 0 59.5 -25.5t24.5 -72.5q0 -31 -10.5 -67t-29.5 -69.5t-47 -64.5t-63 -51zM326 1126q66 74 71 168q-27 6 -43 26.5t-16 49.5q0 31 21.5 54.5t54.5 23.5q35 0 60.5 -25.5t25.5 -72.5q0 -31 -10.5 -67 t-31 -69.5t-48 -64.5t-62.5 -51z" />
<glyph unicode="&#x201e;" horiz-adv-x="522" d="M70 -168q66 72 71 156q-27 6 -43 25t-16 48q0 31 21.5 53.5t54.5 22.5q35 0 59.5 -24.5t24.5 -69.5q0 -61 -41 -130t-107 -110zM274 -168q35 37 51.5 74t18.5 82q-57 14 -57 73q0 31 21.5 53.5t53.5 22.5q35 0 58.5 -24.5t23.5 -69.5q0 -61 -39.5 -130t-107.5 -110z" />
<glyph unicode="&#x2020;" horiz-adv-x="931" d="M82 899v82h338v416h82v-416h338v-82h-338v-1012h-82v1012h-338z" />
<glyph unicode="&#x2021;" horiz-adv-x="931" d="M80 287v82h340v530h-338v82h338v416h82v-416h338v-82h-338v-530h336v-82h-336v-400h-82v400h-340z" />
<glyph unicode="&#x2022;" horiz-adv-x="559" d="M106 557q0 74 50.5 124t119.5 50q72 0 123.5 -50t51.5 -124q0 -35 -13.5 -66.5t-37 -55t-55.5 -37t-69 -13.5q-70 0 -120 50t-50 122z" />
<glyph unicode="&#x2026;" horiz-adv-x="1110" d="M88 63q0 31 22.5 52.5t53.5 21.5t53.5 -21.5t22.5 -52.5t-22.5 -53t-51.5 -22q-33 0 -55.5 22.5t-22.5 52.5zM463 63q0 31 21.5 52.5t54.5 21.5q31 0 52 -21.5t21 -52.5t-22.5 -53t-50.5 -22q-31 0 -53.5 22.5t-22.5 52.5zM858 63q0 31 22.5 52.5t53.5 21.5t53.5 -21.5 t22.5 -52.5t-22.5 -53t-51.5 -22q-33 0 -55.5 22.5t-22.5 52.5z" />
<glyph unicode="&#x202f;" horiz-adv-x="374" />
<glyph unicode="&#x2030;" horiz-adv-x="2332" d="M35 944q0 63 11 137t45 137.5t97.5 105.5t167.5 42q106 0 167 -44t91.5 -108.5t39 -137.5t8.5 -130q0 -70 -14.5 -142.5t-49.5 -132t-94.5 -97t-151.5 -37.5q-104 0 -166.5 35.5t-96.5 94t-44 131t-10 146.5zM119 940q0 -68 9 -129t34.5 -106.5t72 -72t121.5 -26.5 q68 0 111 31t68.5 80t35 108.5t9.5 118.5q0 45 -5.5 105.5t-27 116t-66.5 93t-125 37.5t-127 -36.5t-71.5 -90t-31.5 -116t-7 -113.5zM465 -47l577 1474h72l-573 -1474h-76zM926 401q0 63 11 137t45 137.5t97.5 105.5t167.5 42q106 0 167 -44t91.5 -108.5t38.5 -137.5 t8 -130q0 -70 -14 -142.5t-49 -131.5t-94.5 -97t-151.5 -38q-104 0 -166.5 36t-96.5 94t-44 131t-10 146zM1010 397q0 -68 9 -129t34.5 -106t71.5 -72t122 -27q68 0 111 31t68.5 80t34.5 108.5t9 118.5q0 45 -5 105.5t-26.5 116t-66.5 93.5t-125 38t-127 -37t-71.5 -90.5 t-31.5 -115.5t-7 -114zM1669 401q0 63 11.5 137t45 137.5t97 105.5t168.5 42q106 0 166.5 -44t91 -108.5t39 -137.5t8.5 -130q0 -70 -14.5 -142.5t-49 -131.5t-94 -97t-151.5 -38q-104 0 -167 36t-96.5 94t-44 131t-10.5 146zM1753 397q0 -68 9.5 -129t35 -106t71.5 -72 t122 -27q68 0 110.5 31t68 80t35 108.5t9.5 118.5q0 45 -5 105.5t-26.5 116t-66.5 93.5t-125 38t-127 -37t-72 -90.5t-32 -115.5t-7 -114z" />
<glyph unicode="&#x2039;" horiz-adv-x="608" d="M137 336v74l277 299l39 -33l-215 -303l217 -303l-37 -33z" />
<glyph unicode="&#x203a;" horiz-adv-x="608" d="M129 70l219 303l-217 303l39 33l279 -299v-74l-281 -299z" />
<glyph unicode="&#x2044;" horiz-adv-x="219" d="M-211 -47l578 1474h71l-573 -1474h-76z" />
<glyph unicode="&#x205f;" horiz-adv-x="467" />
<glyph unicode="&#x20ac;" d="M57 565v64h836v-64h-655q6 -102 27.5 -193t71.5 -160t135 -110t214 -41q45 0 120 8.5t148 24.5v178h74v-231q-31 -12 -75 -21.5t-92 -17.5t-96 -12t-91 -4q-131 0 -227.5 41t-161 115.5t-97 182t-38.5 240.5h-93zM57 741v62h97q8 98 40.5 198.5t95 182.5t159 134 t233.5 52q104 0 188 -15.5t138 -35.5v-246h-74v187q-45 16 -114.5 25t-135.5 9q-205 0 -312.5 -133t-129.5 -358h651v-62h-836z" />
<glyph unicode="&#x2116;" horiz-adv-x="2066" d="M82 0v78h139v1243h-139v78h237l637 -998l146 -233h10v1153h-147v78h370v-78h-135v-1321h-86l-653 1016l-146 231h-6v-1169h146v-78h-373zM1438 1049q0 61 14 122.5t48 110.5t89 79t135 30q82 0 135.5 -30t84 -79t42 -109.5t11.5 -121.5q0 -59 -11.5 -120t-43 -109 t-86 -77.5t-140.5 -29.5q-80 0 -134 27.5t-86 74.5t-45 106.5t-13 125.5zM1444 557v76h549v-76h-549zM1509 1047q0 -51 7.5 -99.5t31 -86.5t65.5 -60.5t111 -22.5q61 0 101.5 24.5t62 63.5t29.5 87.5t8 95.5q0 45 -8 95t-29.5 92t-60.5 69.5t-103 27.5q-66 0 -107.5 -25.5 t-65 -66.5t-33 -92t-9.5 -102z" />
<glyph unicode="&#x2122;" horiz-adv-x="1411" d="M80 1243v154h479v-154h-51v96h-158v-518h86v-51h-237v51h84v518h-148v-96h-55zM621 768v53h69v516h-69v60h139l215 -457l223 457h137v-60h-69v-516h69v-53h-205v53h70v445h-2q-49 -100 -99 -198.5t-98 -197.5h-57q-47 98 -94 193.5t-94 193.5h-2v-436h73v-53h-206z" />
<glyph unicode="&#x2202;" horiz-adv-x="1105" d="M121 430q0 104 31.5 188t87 142.5t129 90.5t157.5 32q86 0 184.5 -36t188.5 -142q0 170 -31.5 300t-93 219t-149.5 135t-197 46q-29 0 -55.5 -1t-57.5 -5l-4 69q37 6 70 7.5t61 1.5q154 0 258.5 -65.5t169 -174.5t92 -250t27.5 -293q0 -178 -33.5 -311t-94 -223 t-145.5 -135t-190 -45q-88 0 -161.5 28.5t-128 86t-85 141t-30.5 194.5zM211 434q0 -98 25.5 -168.5t70.5 -116t103.5 -67t124.5 -21.5q94 0 162.5 48.5t113.5 125t66.5 172t21.5 189.5q-86 117 -176 164t-193 47q-78 0 -137 -31t-99 -83t-61.5 -119.5t-21.5 -139.5z" />
<glyph unicode="&#x220f;" horiz-adv-x="1337" d="M82 -102h127v1421h-127v80h1173v-80h-129v-1421h129v-76h-352v76h129v1421h-731v-1421h131v-76h-350v76z" />
<glyph unicode="&#x2211;" horiz-adv-x="1032" d="M70 -102l387 743l-385 678v80h891v-277h-80v199h-709l377 -662v-34l-381 -727h737v223h82v-301h-919v78z" />
<glyph unicode="&#x221a;" horiz-adv-x="1081" d="M55 682q47 25 92.5 49t92.5 47q20 -72 40.5 -135t40 -125.5t40 -128t42.5 -139.5l70 -232h6l49 162q8 25 27.5 93.5t48.5 163.5t61.5 211t67.5 236t69 235.5t61.5 211.5t47 165t27.5 93h80q-53 -170 -116.5 -387t-130 -443.5t-130 -442.5t-117.5 -386h-102 q-33 100 -61.5 191.5t-56.5 180.5t-56.5 181t-61.5 193q-29 -16 -54.5 -28.5t-53.5 -26.5q-6 16 -12.5 30.5t-10.5 30.5z" />
<glyph unicode="&#x221e;" horiz-adv-x="1556" d="M121 508q0 59 21.5 110.5t61.5 90.5t93 60.5t119 21.5q53 0 102 -18.5t96.5 -50.5t91.5 -73t85 -84q45 43 88 84t90 72t99 50.5t114 19.5q61 0 112.5 -20.5t88 -56.5t57 -86t20.5 -110q0 -63 -23.5 -115.5t-65.5 -90.5t-96.5 -58.5t-115.5 -20.5q-84 0 -168 49.5 t-203 168.5q-41 -39 -82.5 -78t-90 -70t-100.5 -50.5t-114 -19.5q-59 0 -109 21.5t-89 59.5t-60.5 88.5t-21.5 105.5zM203 510q0 -88 61.5 -146.5t153.5 -58.5q45 0 90 19.5t87 49t80 64.5t68 66q-35 37 -72.5 75.5t-79.5 69.5t-88 50.5t-97 19.5q-45 0 -82 -17.5t-64 -46 t-42 -66.5t-15 -79zM840 510q49 -49 88 -87t75.5 -64.5t74.5 -40t83 -13.5q49 0 89 17.5t69 46t44 67.5t15 80q0 49 -17.5 87t-47 63.5t-67.5 39t-79 13.5q-45 0 -90 -20.5t-87 -51.5t-81 -67.5t-69 -69.5z" />
<glyph unicode="&#x222b;" horiz-adv-x="655" d="M2 -313l12 63q35 -6 58.5 -9t54.5 -3q57 0 92 17.5t54.5 49t26.5 78t7 103.5q0 168 -10 317.5t-23.5 294.5t-23.5 293.5t-10 314.5q0 150 67.5 240t196.5 90q39 0 61.5 -4t67.5 -14l-12 -66q-35 6 -55.5 8t-49.5 2q-59 0 -97 -19.5t-59.5 -53t-31 -79.5t-9.5 -102 q0 -170 11.5 -313t24 -283.5t23.5 -290t11 -333.5q0 -154 -62.5 -238t-185.5 -84q-39 0 -67.5 5t-71.5 16z" />
<glyph unicode="&#x2248;" d="M141 477q31 63 76.5 98t104.5 35q45 0 107.5 -13t125.5 -30.5t121.5 -31t95.5 -13.5l119 88l41 -26q-29 -66 -73 -102t-103 -36q-55 0 -115.5 13.5t-119 30t-113 29.5t-97.5 13l-127 -90zM141 711q31 63 76.5 100t104.5 37q45 0 107.5 -13.5t125.5 -31t121.5 -30.5 t95.5 -13l119 90l41 -31q-29 -63 -73 -99t-103 -36q-55 0 -115.5 13.5t-119 29.5t-113 29.5t-97.5 13.5l-127 -90z" />
<glyph unicode="&#x2260;" d="M147 438v76h242l201 205h-443v78h517l178 188l57 -53l-131 -135h156v-78h-230l-200 -205h430v-76h-502l-209 -221l-55 51l159 170h-170z" />
<glyph unicode="&#x2264;" d="M147 139v76h777v-76h-777zM150 641v74l774 299v-90l-682 -244l682 -250v-90z" />
<glyph unicode="&#x2265;" d="M147 342v90l687 248l-687 246v90l779 -299v-74zM150 139v76h776v-76h-776z" />
<glyph unicode="&#x25ca;" horiz-adv-x="942" d="M41 539q96 174 192.5 351t192.5 351h90l379 -702q-94 -178 -188.5 -352.5t-190.5 -348.5h-90zM145 539q82 -147 164 -297t160 -297h4l320 594l-322 596h-2q-80 -150 -161 -298.5t-163 -297.5z" />
<glyph unicode="&#x25fc;" horiz-adv-x="993" d="M0 0v993h993v-993h-993z" />
</font>
</defs>
</svg>
